<svg xmlns="http://www.w3.org/2000/svg" width="400" height="365" viewBox="0 0 400 365">
  <g fill="none" fill-rule="evenodd" transform="translate(-1186)">
    <path fill="#596981" fill-rule="nonzero" d="M1325.18633,308.135737 L1367.31252,308.135737 C1370.19076,308.135737 1372.52422,310.468055 1372.52422,313.343278 L1372.52422,313.720319 C1372.52422,316.596552 1370.19135,318.92786 1367.31252,318.92786 L1349.66,318.92786 C1345.6769,318.92786 1342.4483,322.154299 1342.4483,326.135402 L1342.4483,326.700161 C1342.4483,330.681263 1345.6769,333.907702 1349.66,333.907702 L1427.56872,333.907702 L1427.56872,331.907702 L1349.66,331.907702 C1346.78117,331.907702 1344.4483,329.576394 1344.4483,326.700161 L1344.4483,326.135402 C1344.4483,323.259168 1346.78117,320.92786 1349.66,320.92786 L1367.31252,320.92786 C1371.29562,320.92786 1374.52422,317.701422 1374.52422,313.720319 L1374.52422,313.343278 C1374.52422,309.363266 1371.29511,306.135737 1367.31252,306.135737 L1325.18569,306.135737 L1325.18569,306.136379 C1322.30716,306.136032 1319.97463,303.804857 1319.97463,300.928838 L1319.97463,299.799319 C1319.97463,296.924096 1322.3081,294.591778 1325.18633,294.591778 L1416.48656,294.591778 C1419.36479,294.591778 1421.69826,296.924096 1421.69826,299.799319 L1421.69826,300.582281 C1421.69826,303.458514 1419.36539,305.789822 1416.48656,305.789822 L1394.17326,305.789822 C1390.19016,305.789822 1386.96156,309.016261 1386.96156,312.997363 L1386.96156,313.6263 C1386.96156,317.607402 1390.19016,320.833841 1394.17326,320.833841 L1413.26271,320.833841 L1413.26271,318.833841 L1394.17326,318.833841 C1391.29443,318.833841 1388.96156,316.502533 1388.96156,313.6263 L1388.96156,312.997363 C1388.96156,310.12113 1391.29443,307.789822 1394.17326,307.789822 L1416.48656,307.789822 C1420.46966,307.789822 1423.69826,304.563383 1423.69826,300.582281 L1423.69826,299.799319 C1423.69826,295.819307 1420.46914,292.591778 1416.48656,292.591778 L1325.18633,292.591778 C1321.20375,292.591778 1317.97463,295.819307 1317.97463,299.799319 L1317.97463,300.928838 C1317.97463,304.90994 1321.20323,308.136379 1325.18633,308.136379 L1325.18633,308.135737 Z M1499.80945,332.885603 L1542.94782,332.885603 L1542.94782,334.885603 L1477.30516,334.885603 L1477.30516,332.885603 L1497.80945,332.885603 L1497.80945,212.478524 L1521.24982,199.232346 L1521.24982,171.740079 L1569.22422,143.898213 L1569.22422,89.6165687 L1592.887,75.6663087 L1593.90272,77.3891907 L1572.21191,90.1768864 L1594.71002,103.095504 L1593.71411,104.82991 L1571.22422,91.9160142 L1571.22422,144.473772 L1570.22362,144.473772 L1570.72584,145.339154 L1524.27029,172.299557 L1547.49807,185.278924 L1547.49807,281.234615 L1545.49807,281.234615 L1545.49807,186.452414 L1523.24982,174.020393 L1523.24982,185.827002 L1523.25014,185.827002 L1523.25014,233.138445 L1521.25014,233.138445 L1521.25014,201.529415 L1499.80945,213.645571 L1499.80945,332.885603 Z M1454.16993,268.634263 L1464.08743,268.634263 L1464.08743,231.055574 L1466.08743,231.055574 L1466.08051,268.634263 L1470.34722,268.634263 L1470.34722,270.634263 L1465.97455,270.634263 L1461.08837,311.339267 L1465.76564,364.146299 L1463.77344,364.322754 L1459.0902,311.204438 L1463.96019,270.634263 L1454.16993,270.634263 L1454.16993,280.205052 L1452.16993,280.205052 L1452.16993,270.634263 L1443.05559,270.634263 L1447.92558,311.204438 L1443.24234,364.322754 L1441.25014,364.146299 L1445.92741,311.339267 L1441.04123,270.634263 L1436.7681,270.634263 L1436.7681,268.634263 L1440.93527,268.634263 L1440.92835,231.055574 L1442.92835,231.055574 L1442.92835,268.634263 L1452.16993,268.634263 L1452.16993,234.49804 L1454.16993,234.49804 L1454.16993,268.634263 Z M1691.79222,64.5339494 L1690.27823,64.5339494 L1690.27823,62.5339494 C1694.77021,62.5339494 1698.40132,66.1904188 1698.36651,70.6797871 L1698.36329,71.0954477 C1698.32848,75.5356185 1694.71738,79.1166171 1690.27502,79.1166171 L1617.32089,79.1166171 C1613.95779,79.1166171 1611.23259,81.8404214 1611.23259,85.2001772 L1611.23259,85.4087532 C1611.23259,88.768509 1613.95779,91.4923133 1617.32089,91.4923133 L1709.57319,91.4923133 L1709.57319,93.4923133 L1617.32089,93.4923133 C1612.85345,93.4923133 1609.23259,89.8733082 1609.23259,85.4087532 L1609.23259,85.2001772 C1609.23259,80.7356222 1612.85345,77.1166171 1617.32089,77.1166171 L1690.27502,77.1166171 C1693.61916,77.1166171 1696.33716,74.4212838 1696.36336,71.0798806 L1696.36657,70.6643064 C1696.39276,67.2858643 1693.65994,64.5339494 1690.27823,64.5339494 L1636.88557,64.5339494 C1632.41813,64.5339494 1628.79727,60.9149443 1628.79727,56.4503892 L1628.79727,55.7701108 C1628.79727,51.3044704 1632.41761,47.6865506 1636.88557,47.6865506 L1664.44085,47.6865506 C1667.80395,47.6865506 1670.52915,44.9627464 1670.52915,41.6029905 L1670.52915,41.2756867 C1670.52915,37.9159308 1667.80395,35.1921266 1664.44085,35.1921266 L1599.98466,35.1921266 C1596.62257,35.1921266 1593.89635,37.9165201 1593.89635,41.2756867 L1593.89635,41.7794778 C1593.89635,45.1386445 1596.62257,47.863038 1599.98466,47.863038 L1606.07915,47.863038 C1610.54603,47.863038 1614.16745,51.4814768 1614.16745,55.9465981 L1614.16745,56.4503892 C1614.16745,60.9144251 1610.54551,64.5339494 1606.07915,64.5339494 L1537.8725,64.5339494 L1537.8725,62.5339494 L1606.07915,62.5339494 C1609.44124,62.5339494 1612.16745,59.8095559 1612.16745,56.4503892 L1612.16745,55.9465981 C1612.16745,52.5864162 1609.44183,49.863038 1606.07915,49.863038 L1599.98466,49.863038 C1595.5183,49.863038 1591.89635,46.2435137 1591.89635,41.7794778 L1591.89635,41.2756867 C1591.89635,36.8116508 1595.5183,33.1921266 1599.98466,33.1921266 L1664.44085,33.1921266 C1668.90829,33.1921266 1672.52915,36.8111317 1672.52915,41.2756867 L1672.52915,41.6029905 C1672.52915,46.0675455 1668.90829,49.6865506 1664.44085,49.6865506 L1636.88557,49.6865506 C1633.52188,49.6865506 1630.79727,52.4093397 1630.79727,55.7701108 L1630.79727,56.4503892 C1630.79727,59.8101451 1633.52247,62.5339494 1636.88557,62.5339494 L1693.30622,62.5339494 L1693.30622,64.5339494 L1691.79222,64.5339494 L1690.27823,64.5339494 L1690.27823,62.5339494 L1693.30622,62.5339494 L1693.30622,64.5339494 L1691.79222,64.5339494 Z M1356.96961,1.84261838 C1360.69741,-6.15592276 1357.36848,-15.692701 1349.30295,-19.7294054 C1343.64534,-22.5600101 1336.72058,-20.3513803 1333.84127,-14.8060345 C1331.9081,-11.0795768 1333.41735,-6.51851691 1337.22045,-4.61540091 C1339.74584,-3.35220871 1342.83486,-4.33682395 1344.11526,-6.80480608 L1345.89056,-5.8837705 C1344.10446,-2.4410552 1339.82424,-1.07674799 1336.32559,-2.82676478 C1331.52869,-5.22719047 1329.61662,-11.0055957 1332.0661,-15.7273406 C1335.45136,-22.2470908 1343.56701,-24.8355518 1350.19795,-21.5179712 C1359.47156,-16.8766433 1363.16242,-5.7190924 1358.43265,3.39807369 C1358.43112,3.40103591 1358.42958,3.40399773 1358.42804,3.40695913 C1364.83665,14.5726982 1377.03751,21.5002016 1390.3476,21.1081509 C1391.04403,21.0877799 1391.72747,21.0483811 1392.39758,20.9897473 L1392.57191,22.9821349 C1391.86276,23.0441853 1391.14073,23.0858048 1390.40617,23.1074442 C1376.75193,23.5093667 1364.1971,16.6116114 1357.28312,5.39368402 C1350.08354,16.7111372 1335.14697,20.9337959 1322.82167,14.7658067 L1322.82199,14.7651817 C1314.47508,10.5915898 1308.64237,2.18679204 1308.34127,-7.66402129 C1307.902,-22.0333396 1319.40441,-34.0264067 1334.02026,-34.4564873 C1337.47296,-34.5575621 1340.85469,-34.0037581 1344.02279,-32.848095 C1343.99378,-33.1492226 1343.9747,-33.4486238 1343.96581,-33.7473076 C1343.70801,-42.1976135 1350.46746,-49.2459639 1359.05474,-49.499622 C1361.28356,-49.5652105 1363.46185,-49.1587908 1365.48227,-48.3286305 C1366.1863,-58.981985 1372.11261,-69.0680644 1382.2453,-74.78857 L1382.24656,-74.7863405 C1386.95623,-77.481965 1392.39388,-79.0920774 1398.20801,-79.2634052 C1404.90966,-79.4617083 1411.38015,-77.725715 1416.96207,-74.3305956 L1415.92275,-72.6218494 C1410.66906,-75.8173299 1404.57969,-77.4510691 1398.26705,-77.2642766 C1381.32573,-76.7650591 1367.79371,-63.2991329 1367.46285,-46.7424774 L1367.43039,-45.1180574 C1367.60319,-40.1705558 1368.98242,-35.1820145 1371.68065,-30.5738958 C1377.71645,-20.2637656 1391.13344,-16.7077005 1401.63965,-22.6396852 C1408.84227,-26.7076133 1411.31996,-35.7249564 1407.18316,-42.7886871 C1404.36608,-47.5995028 1398.09967,-49.2614621 1393.1941,-46.4921306 C1389.91188,-44.6382058 1388.78468,-40.5350369 1390.66736,-37.3188978 L1388.94135,-36.3085117 C1386.49244,-40.4919104 1387.95958,-45.8324591 1392.21069,-48.2336544 C1398.06428,-51.5381694 1405.53809,-49.5559888 1408.90901,-43.7993534 C1413.61233,-35.768261 1410.79458,-25.5133136 1402.62308,-20.8981743 C1391.169,-14.4310079 1376.54438,-18.3071458 1369.95471,-29.5633889 C1366.87802,-34.8178538 1365.41286,-40.5387543 1365.4114,-46.1733617 C1363.45751,-47.1030814 1361.31453,-47.565256 1359.11368,-47.5004907 C1351.6233,-47.2792336 1345.74103,-41.1455651 1345.9649,-33.8075481 C1345.98743,-33.0506804 1346.08736,-32.2804477 1346.26095,-31.471981 L1346.67301,-29.5528384 L1344.87828,-30.3477185 C1341.5142,-31.8376569 1337.84382,-32.567562 1334.07893,-32.4573482 C1320.56014,-32.0595493 1309.9351,-20.9812672 1310.34034,-7.72512896 C1310.7456,5.53353048 1322.02729,15.9674806 1335.54679,15.5696608 C1344.39719,15.307892 1352.27437,10.4195211 1356.38955,2.9022242 L1356.96961,1.84261838 Z M1563.17769,-28.2573686 C1563.28769,-18.4453674 1556.27196,-9.72156453 1546.28658,-7.98805326 C1538.3612,-6.61177224 1530.82044,-11.9168734 1529.44287,-19.8373215 C1528.45075,-25.5448296 1532.27706,-30.9768377 1537.98765,-31.968163 C1542.14734,-32.6899003 1546.10712,-29.9043225 1546.82939,-25.7471289 L1544.85891,-25.4047781 C1544.32575,-28.4734913 1541.4015,-30.5306097 1538.32964,-29.9976191 C1533.70736,-29.1952187 1530.61044,-24.7986854 1531.41331,-20.179933 C1532.60158,-13.3478216 1539.10688,-8.7711953 1545.94444,-9.95857088 C1555.94458,-11.6946446 1562.64172,-21.2040201 1560.90434,-31.1982676 C1559.35144,-40.1305203 1553.51851,-47.246949 1545.87584,-50.8096336 C1542.51923,-52.3276184 1538.79793,-53.170593 1534.89108,-53.170593 C1530.0088,-53.170593 1525.31973,-51.8556882 1521.21465,-49.4022205 L1520.21456,-48.804503 L1519.77539,-49.8836546 C1515.11548,-61.334176 1503.96349,-68.9790456 1491.38833,-68.9790456 C1490.10954,-68.9790456 1488.84196,-68.900919 1487.58705,-68.7459225 L1487.34189,-70.7308395 C1488.67805,-70.8958727 1490.02752,-70.9790456 1491.38833,-70.9790456 C1504.39669,-70.9790456 1515.97573,-63.2992464 1521.18011,-51.685216 C1523.85056,-53.1408322 1526.73146,-54.161457 1529.73381,-54.7072831 L1529.70476,-54.8745998 C1535.69304,-55.9141784 1541.56974,-55.0172508 1546.69216,-52.6358985 C1555.48509,-48.6622453 1561.95131,-40.3796735 1563.30562,-30.3985852 C1565.6152,-31.0982003 1568.02634,-31.4587165 1570.48351,-31.4587165 C1584.14109,-31.4587165 1595.21126,-20.3949204 1595.21126,-6.74523544 C1595.21126,6.90416438 1584.14138,17.9666411 1570.48351,17.9666411 C1566.4947,17.9666411 1562.64066,17.0171073 1559.17038,15.2287513 C1554.59006,21.8284528 1547.06297,25.8716696 1538.84544,25.8716696 C1530.31075,25.8716696 1522.52305,21.5119078 1518.00511,14.4558471 L1519.68943,13.3773909 C1523.84359,19.8653085 1531.00002,23.8716696 1538.84544,23.8716696 C1546.68983,23.8716696 1553.84762,19.864783 1558.00144,13.3773909 L1558.51113,12.5813661 L1559.33458,13.0454464 C1562.71519,14.9506989 1566.52537,15.9666411 1570.48351,15.9666411 C1583.03711,15.9666411 1593.21126,5.79929511 1593.21126,-6.74523544 C1593.21126,-19.290093 1583.03678,-29.4587165 1570.48351,-29.4587165 C1567.97144,-29.4587165 1565.51353,-29.0493007 1563.17769,-28.2573686 Z M1343.46253,183.833298 C1347.24736,184.52177 1350.87595,185.822674 1354.23028,187.683246 C1360.59465,173.226655 1374.94465,163.649323 1391.07833,163.649323 C1392.76621,163.649323 1394.43245,163.753934 1396.0704,163.957358 L1396.07753,163.900927 C1406.89158,165.26751 1416.15777,170.802914 1422.46534,178.68892 C1426.34026,183.504285 1429.13747,189.249167 1430.46551,195.58206 C1440.95175,199.232474 1449.74097,206.659516 1455.1149,216.338856 C1459.52277,213.953374 1464.46174,212.68232 1469.58268,212.68232 C1473.82394,212.68232 1477.94701,213.550815 1481.75248,215.210889 L1480.95279,217.044055 C1477.39837,215.493498 1473.54741,214.68232 1469.58268,214.68232 C1464.46792,214.68232 1459.55122,216.038056 1455.22432,218.572329 L1454.32093,219.101445 L1453.83378,218.174752 C1448.91963,208.82674 1440.71367,201.569529 1430.8438,197.846474 C1431.37631,201.410828 1431.43473,205.106697 1430.96007,208.858055 C1428.98663,224.450436 1414.73859,235.490429 1399.13574,233.518305 C1388.04967,232.117441 1380.19869,222.000467 1381.60066,210.922186 C1382.6027,203.000806 1389.83929,197.393116 1397.76501,198.394588 C1403.4764,199.116907 1407.52164,204.329664 1406.79882,210.037384 L1404.81467,209.786112 C1405.39865,205.174729 1402.12988,200.962544 1397.51418,200.378796 C1390.68397,199.515751 1384.44824,204.347874 1383.58484,211.173235 C1382.3216,221.155293 1389.3961,230.271675 1399.3865,231.534088 C1413.894,233.367764 1427.14117,223.103279 1428.97589,208.606962 C1430.32591,197.937451 1427.13794,187.74022 1420.91482,179.952333 C1413.85993,171.179167 1403.04107,165.649323 1391.07833,165.649323 C1375.37639,165.649323 1361.45262,175.194726 1355.63672,189.490513 L1355.19762,190.569841 L1354.19741,189.972053 C1349.06712,186.905849 1343.20582,185.26188 1337.10608,185.26188 C1332.23139,185.26188 1327.58789,186.312016 1323.39834,188.203396 C1313.83658,192.652494 1306.537,201.551823 1304.59404,212.72381 C1302.41541,225.25182 1310.81293,237.173684 1323.34936,239.351136 C1331.96482,240.846703 1340.16018,235.082054 1341.65665,226.474407 C1342.67618,220.613832 1338.74608,215.034813 1332.87966,214.015886 C1328.93752,213.332043 1325.18626,215.971601 1324.50068,219.911751 L1322.53028,219.568906 C1323.40518,214.540743 1328.19162,211.172783 1333.2217,212.045351 C1340.17645,213.253308 1344.836,219.867818 1343.62708,226.817082 C1341.9414,236.513013 1332.71051,243.006058 1323.0072,241.32165 C1310.679,239.180365 1302.03332,228.367876 1302.25386,216.241779 C1299.28178,215.213967 1296.14969,214.68232 1292.94667,214.68232 C1277.23986,214.68232 1264.50814,227.405524 1264.50814,243.101156 C1264.50814,258.796788 1277.23986,271.519991 1292.94667,271.519991 L1312.21755,271.519991 L1312.21755,273.519991 L1292.94667,273.519991 C1276.13559,273.519991 1262.50814,259.901657 1262.50814,243.101156 C1262.50814,226.300655 1276.13559,212.68232 1292.94667,212.68232 C1296.06814,212.68232 1299.12839,213.154593 1302.05343,214.070303 C1303.63955,201.637547 1311.65503,191.307398 1322.58294,186.376723 C1328.89114,183.447913 1336.12629,182.345768 1343.49851,183.626073 L1343.46253,183.833298 Z M1616.34562,210.095616 L1616.34562,173.563968 L1594.22347,187.028751 L1570.76593,173.3741 L1570.74902,226.091232 L1594.6869,239.579573 L1594.6869,267.705577 L1592.6869,267.705577 L1592.6869,240.748277 L1568.74864,227.259725 L1568.76668,171.047098 L1592.6869,157.752893 L1592.6869,131.018858 L1594.6869,131.018858 L1594.6869,157.759245 L1618.34562,171.202768 L1618.34562,209.517757 L1642.00433,223.168251 L1642.00433,253.740615 L1640.00433,253.740615 L1640.00433,224.323327 L1618.34514,211.826506 L1618.34514,240.587816 L1616.34514,240.587816 L1616.34514,210.095616 L1616.34562,210.095616 Z M1615.37355,171.814289 L1593.68148,159.488266 L1571.78904,171.655483 L1594.20066,184.701303 L1615.37355,171.814289 Z M1593.6869,158.341184 L1593.68718,158.340703 L1593.68664,158.340703 L1593.6869,158.341184 Z M1333.80243,103.871254 L1334.30112,104.738033 L1312.11327,117.503625 L1334.76989,130.576406 L1334.21136,172.329309 L1332.21153,172.302558 L1332.75438,131.722511 L1311.11,119.233787 L1311.11,181.286625 L1309.11,181.286625 L1309.11,116.924139 L1332.76261,103.315807 L1332.76261,62.8796627 L1334.76261,62.8796627 L1334.76261,103.871254 L1333.80243,103.871254 Z M1476.40183,82.1948214 C1480.25401,82.6856358 1483.23149,85.9737012 1483.23149,89.956832 C1483.23149,94.2785914 1479.72623,97.7820788 1475.40167,97.7820788 C1471.07821,97.7820788 1467.57186,94.2780736 1467.57186,89.956832 C1467.57186,85.9741426 1470.55031,82.6856514 1474.40183,82.1948169 L1474.40183,35.0313805 L1498.19849,21.3280188 L1498.18592,-32.1572991 L1476.507,-44.6582602 L1476.507,0.358447148 C1480.30807,0.895162048 1483.23149,4.15952494 1483.23149,8.10633481 C1483.23149,12.4280942 1479.72623,15.9315816 1475.40167,15.9315816 C1471.07821,15.9315816 1467.57186,12.4275764 1467.57186,8.10633481 C1467.57186,4.08747205 1470.60466,0.775475035 1474.507,0.331639477 L1474.507,-46.3886244 L1474.5078,-46.3886244 L1474.5078,-99.2901548 L1452.83335,-86.7856699 L1452.83335,164.07579 C1456.63614,164.610981 1459.56138,167.876143 1459.56138,171.824176 C1459.56138,176.145935 1456.05611,179.649422 1451.73156,179.649422 C1447.40809,179.649422 1443.90174,176.145417 1443.90174,171.824176 C1443.90174,167.806525 1446.93272,164.495315 1450.83335,164.049883 L1450.83335,-86.7852851 L1429.15986,-99.2885934 L1429.15986,-19.0813797 L1428.65971,-19.0813797 L1429.15986,-19.0813797 L1429.15986,90.1883513 L1427.15986,90.1883513 L1427.15986,-17.3487115 L1405.48686,-4.83980565 L1405.48686,41.4570034 C1409.33678,41.9498729 1412.31186,45.2368934 1412.31186,49.2184193 C1412.31186,53.5401787 1408.80659,57.0436661 1404.48204,57.0436661 C1400.15858,57.0436661 1396.65222,53.5396609 1396.65222,49.2184193 C1396.65222,45.2341252 1399.63308,41.9445888 1403.48686,41.4558123 L1403.48686,-5.99469119 L1427.15986,-19.6579276 L1427.15986,-101.59698 L1450.83335,-115.265308 L1450.83335,-142 L1452.83335,-142 L1452.83335,-115.264991 L1476.5078,-101.598638 L1476.5078,-46.9664897 L1500.18564,-33.3128655 L1500.19849,21.3280787 L1523.8713,34.9703447 L1523.91786,89.6114193 L1547.49839,103.228504 L1547.49839,131.071484 L1545.49839,131.071484 L1545.49839,104.383083 L1521.91884,90.7665668 L1521.87228,36.1266794 L1499.19844,23.0601006 L1476.40183,36.1875803 L1476.40183,82.1948214 Z M1358.12292,109.737699 C1361.98456,110.219866 1364.97211,113.512312 1364.97211,117.502174 C1364.97211,121.823933 1361.46685,125.327421 1357.14229,125.327421 C1352.81883,125.327421 1349.31248,121.823416 1349.31248,117.502174 C1349.31248,113.526223 1352.28086,110.242123 1356.12291,109.742674 L1356.14198,75.9518161 L1379.81107,62.3092238 L1379.82365,35.5607167 L1381.82365,35.5616573 L1381.81107,62.29404 L1405.48146,75.9489818 L1405.48627,103.293755 L1429.11122,116.924961 L1429.11122,164.650286 L1427.11122,164.650286 L1427.11122,118.080029 L1403.98645,104.737417 L1404.4864,103.870934 L1403.48638,103.87111 L1403.48186,78.2587774 L1381.81312,90.7618942 L1381.80358,151.475984 L1379.80358,151.47567 L1379.81312,90.7609701 L1358.14068,78.2603524 L1358.12292,109.737699 Z M1500.17633,109.563839 C1504.0285,110.054664 1507.00596,113.342724 1507.00596,117.325847 C1507.00596,121.647607 1503.5007,125.151094 1499.17615,125.151094 C1496.66155,125.151094 1494.42336,123.965765 1492.99068,122.123725 L1476.04624,131.992562 L1475.03967,130.26432 L1491.97435,120.401168 C1491.57013,119.457105 1491.34633,118.417556 1491.34633,117.325847 C1491.34633,113.34315 1494.3248,110.054654 1498.17633,109.563829 L1498.19846,49.2214218 L1500.19846,49.2221554 L1500.17633,109.563839 Z M1379.80998,64.6182896 L1359.14374,76.5300718 L1380.81392,89.0293811 L1402.48119,76.5271183 L1381.80999,64.6023434 L1381.80438,76.5275782 L1379.80438,76.5266376 L1379.80998,64.6182896 Z M1450.83335,-112.955889 L1430.16071,-101.020156 L1451.83302,-88.5175285 L1473.50685,-101.021658 L1452.83335,-112.955678 L1452.83335,-101.021244 L1450.83335,-101.021244 L1450.83335,-112.955889 Z M1357.14245,34.775218 L1357.14245,36.775218 L1321.77961,36.775218 C1318.61661,36.775218 1316.05255,39.3375641 1316.05255,42.4977813 C1316.05255,45.6593919 1318.6164,48.2219491 1321.77961,48.2219491 L1356.02984,48.2219491 L1356.02984,50.2219491 L1321.77961,50.2219491 C1317.51205,50.2219491 1314.05255,46.7641873 1314.05255,42.4977813 C1314.05255,38.2326948 1317.51234,34.775218 1321.77961,34.775218 L1357.14245,34.775218 Z M1627.03083,153.267132 L1627.03083,151.267132 L1657.67509,151.267132 C1660.83809,151.267132 1663.40216,148.704786 1663.40216,145.544569 C1663.40216,142.382958 1660.83831,139.820401 1657.67509,139.820401 L1613.49,139.820401 L1613.49,137.820401 L1657.67509,137.820401 C1661.94265,137.820401 1665.40216,141.278163 1665.40216,145.544569 C1665.40216,149.809655 1661.94236,153.267132 1657.67509,153.267132 L1627.03083,153.267132 Z M1556.71502,36.7476218 L1556.71502,34.7476218 L1565.52924,34.7476218 C1569.85592,34.7476218 1573.36388,38.2532315 1573.36388,42.577682 C1573.36388,46.9034524 1569.8562,50.4093465 1565.52924,50.4093465 L1540.83819,50.4093465 L1540.83819,48.4093465 L1565.52924,48.4093465 C1568.75186,48.4093465 1571.36388,45.7986558 1571.36388,42.577682 C1571.36388,39.3581008 1568.75165,36.7476218 1565.52924,36.7476218 L1556.71502,36.7476218 Z M1499.05034,191.177659 L1499.04989,193.177659 L1477.44805,193.172845 C1473.23749,193.172845 1469.82534,189.762414 1469.82534,185.55457 L1469.82534,184.77963 C1469.82534,180.570984 1473.23829,177.15975 1477.44805,177.15975 L1499.14644,177.15975 C1502.25304,177.15975 1504.77076,174.644143 1504.77076,171.429165 C1504.77076,168.326497 1502.25304,165.81089 1499.14644,165.81089 L1482.02534,165.81089 C1477.8524,165.81089 1474.45445,162.456783 1474.40272,158.285485 C1474.34912,154.048628 1477.76767,150.581971 1482.00692,150.572737 L1515.9214,150.492516 C1519.12067,150.484304 1521.70883,147.891113 1521.70883,144.694541 C1521.70883,141.492821 1519.11126,138.89657 1515.90791,138.89657 L1510.87947,138.89657 L1510.87947,136.89657 L1515.90791,136.89657 C1520.21561,136.89657 1523.70883,140.388024 1523.70883,144.694541 C1523.70883,148.993958 1520.22809,152.481469 1515.92633,152.49251 L1482.01147,152.572732 C1478.88439,152.579543 1476.36304,155.136381 1476.40256,158.260434 C1476.44072,161.336908 1478.94703,163.81089 1482.02534,163.81089 L1499.14644,163.81089 C1503.35724,163.81089 1506.77076,167.221552 1506.77076,171.541475 C1506.77076,175.749088 1503.35724,179.15975 1499.14644,179.15975 L1477.44805,179.15975 C1474.34264,179.15975 1471.82534,181.675778 1471.82534,184.77963 L1471.82534,185.55457 C1471.82534,188.657619 1474.34183,191.172845 1477.44827,191.172845 L1499.05034,191.177659 Z M1540.83819,77.5272684 L1540.83819,75.5272684 L1562.17856,75.5272684 L1562.17856,77.5272684 L1540.83819,77.5272684 Z M1276.63876,183.524282 L1276.63876,181.524282 L1290.99518,181.524282 C1294.35828,181.524282 1297.08349,178.800478 1297.08349,175.440722 L1297.08349,175.232146 C1297.08349,171.87239 1294.35828,169.148586 1290.99518,169.148586 L1249.71927,169.148586 C1245.27691,169.148586 1241.66581,165.567588 1241.63099,161.127304 L1241.62778,160.711783 C1241.59297,156.222388 1245.22408,152.565918 1249.71606,152.565918 L1249.71606,154.565918 L1246.68807,154.565918 L1246.68807,152.565918 L1287.05528,152.565918 C1290.41698,152.565918 1293.14197,149.841901 1293.14197,146.482358 L1293.14197,145.80208 C1293.14197,142.441522 1290.41757,139.71852 1287.05528,139.71852 L1227.82018,139.71852 C1223.35274,139.71852 1219.73188,136.099515 1219.73188,131.634959 L1219.73188,131.307656 C1219.73188,126.843101 1223.35274,123.224096 1227.82018,123.224096 L1292.70826,123.224096 L1292.70826,125.224096 L1227.82018,125.224096 C1224.45708,125.224096 1221.73188,127.9479 1221.73188,131.307656 L1221.73188,131.634959 C1221.73188,134.994715 1224.45708,137.71852 1227.82018,137.71852 L1287.05528,137.71852 C1291.52191,137.71852 1295.14197,141.336723 1295.14197,145.80208 L1295.14197,146.482358 C1295.14197,150.94663 1291.52139,154.565918 1287.05528,154.565918 L1246.68807,154.565918 L1246.68807,152.565918 L1249.71606,152.565918 L1249.71606,154.565918 C1246.33435,154.565918 1243.60153,157.317833 1243.62772,160.696302 L1243.63093,161.111737 C1243.65713,164.453253 1246.37512,167.148586 1249.71927,167.148586 L1290.99518,167.148586 C1295.46262,167.148586 1299.08349,170.767591 1299.08349,175.232146 L1299.08349,175.440722 C1299.08349,179.905277 1295.46262,183.524282 1290.99518,183.524282 L1276.63876,183.524282 Z M1676.70642,108.867171 L1676.70642,110.867171 L1614.85757,110.867171 C1611.49548,110.867171 1608.76927,113.591565 1608.76927,116.950731 L1608.76927,117.367883 C1608.76927,120.72705 1611.49548,123.451443 1614.85757,123.451443 L1654.25665,123.451443 L1654.25665,125.451443 L1614.85757,125.451443 C1610.39121,125.451443 1606.76927,121.831919 1606.76927,117.367883 L1606.76927,116.950731 C1606.76927,112.486695 1610.39121,108.867171 1614.85757,108.867171 L1676.70642,108.867171 Z M1200.61716,79.6099794 L1200.61716,77.6099794 L1245.89881,77.6099794 C1250.25117,77.6099794 1253.77839,81.1348423 1253.77839,85.4849636 L1253.77839,85.9181598 C1253.77839,90.2682812 1250.25117,93.793144 1245.89881,93.793144 L1239.1894,93.793144 C1235.9419,93.793144 1233.30982,96.4238902 1233.30982,99.6681282 L1233.30982,100.293856 C1233.30982,103.539108 1235.94131,106.16884 1239.1894,106.16884 L1294.77518,106.16884 C1298.02226,106.16884 1300.65477,103.538518 1300.65477,100.293856 L1300.65477,99.9200237 C1300.65477,96.6753619 1298.02226,94.0450396 1294.77518,94.0450396 L1274.97289,94.0450396 C1270.62213,94.0450396 1267.0933,90.5185723 1267.0933,86.1700554 L1267.0933,85.0854604 C1267.0933,80.7358571 1270.62161,77.2104763 1274.97289,77.2104763 L1312.3378,77.2104763 C1315.58429,77.2104763 1318.21739,74.5791397 1318.21739,71.3354921 L1318.21739,70.7097642 C1318.21739,67.4661166 1315.58429,64.8347801 1312.3378,64.8347801 L1261.7355,64.8347801 C1257.38423,64.8347801 1253.85592,61.3093993 1253.85592,56.9597959 L1253.85592,56.542644 C1253.85592,52.1941271 1257.38475,48.6676598 1261.7355,48.6676598 L1292.5339,48.6676598 C1295.78199,48.6676598 1298.41349,46.0379277 1298.41349,42.7926756 L1298.41349,41.5428244 C1298.41349,38.2975723 1295.78199,35.6678402 1292.5339,35.6678402 L1211.61486,35.6678402 C1208.36677,35.6678402 1205.73528,38.2975723 1205.73528,41.5428244 L1205.73528,42.4092168 C1205.73528,45.6534547 1208.36736,48.2842009 1211.61486,48.2842009 L1231.98872,48.2842009 C1236.33999,48.2842009 1239.8683,51.8095817 1239.8683,56.1591851 L1239.8683,56.8555079 C1239.8683,61.2051113 1236.33999,64.7304921 1231.98872,64.7304921 L1186.00064,64.7304921 L1186.00064,62.7304921 L1231.98872,62.7304921 C1235.2358,62.7304921 1237.8683,60.1001698 1237.8683,56.8555079 L1237.8683,56.1591851 C1237.8683,52.9145232 1235.2358,50.2842009 1231.98872,50.2842009 L1211.61486,50.2842009 C1207.26302,50.2842009 1203.73528,46.7582517 1203.73528,42.4092168 L1203.73528,41.5428244 C1203.73528,37.192703 1207.2625,33.6678402 1211.61486,33.6678402 L1292.5339,33.6678402 C1296.88626,33.6678402 1300.41349,37.192703 1300.41349,41.5428244 L1300.41349,42.7926756 C1300.41349,47.142797 1296.88626,50.6676598 1292.5339,50.6676598 L1261.7355,50.6676598 C1258.48902,50.6676598 1255.85592,53.2989963 1255.85592,56.542644 L1255.85592,56.9597959 C1255.85592,60.2044578 1258.48843,62.8347801 1261.7355,62.8347801 L1312.3378,62.8347801 C1316.68856,62.8347801 1320.21739,66.3612473 1320.21739,70.7097642 L1320.21739,71.3354921 C1320.21739,75.684009 1316.68856,79.2104763 1312.3378,79.2104763 L1274.97289,79.2104763 C1271.72581,79.2104763 1269.0933,81.8407986 1269.0933,85.0854604 L1269.0933,86.1700554 C1269.0933,89.413703 1271.7264,92.0450396 1274.97289,92.0450396 L1294.77518,92.0450396 C1299.12646,92.0450396 1302.65477,95.5704204 1302.65477,99.9200237 L1302.65477,100.293856 C1302.65477,104.643459 1299.12646,108.16884 1294.77518,108.16884 L1239.1894,108.16884 C1234.83704,108.16884 1231.30982,104.643977 1231.30982,100.293856 L1231.30982,99.6681282 C1231.30982,95.3190932 1234.83756,91.793144 1239.1894,91.793144 L1245.89881,91.793144 C1249.1469,91.793144 1251.77839,89.1634119 1251.77839,85.9181598 L1251.77839,85.4849636 C1251.77839,82.2397115 1249.1469,79.6099794 1245.89881,79.6099794 L1200.61716,79.6099794 Z M1407.72869,272.649909 C1400.02195,272.649909 1394.84844,270.707442 1389.37035,266.205148 C1381.16036,276.180805 1368.94122,282.09519 1355.74567,282.09519 C1344.0894,282.09519 1333.15817,277.491484 1325.05318,269.437579 L1326.46292,268.018902 C1334.19695,275.704191 1344.62312,280.09519 1355.74567,280.09519 C1368.67186,280.09519 1380.61269,274.148731 1388.44486,264.164147 L1389.09105,263.34038 L1389.88431,264.02367 C1395.31347,268.700186 1400.152,270.649909 1407.72869,270.649909 C1411.56595,270.649909 1415.71856,269.206959 1419.81321,266.85659 L1420.80886,268.591144 C1416.43849,271.099781 1411.97743,272.649909 1407.72869,272.649909 Z M1600.47289,295.825026 C1604.45599,295.825026 1607.68619,299.053069 1607.68619,303.034171 L1607.68619,303.597326 C1607.68619,307.578203 1604.45621,310.804867 1600.47157,310.804867 L1521.45893,310.700577 C1517.35324,310.691298 1514.04504,307.33582 1514.09705,303.233535 C1514.1472,299.19671 1517.43585,295.950611 1521.47482,295.950171 L1600.47289,295.825026 Z M1561.30137,284.421935 L1561.3022,282.421935 L1623.24858,282.447606 C1626.12741,282.447606 1628.46028,280.116298 1628.46028,277.240065 L1628.46028,276.675305 C1628.46028,273.799072 1626.12741,271.467764 1623.25042,271.467763 L1606.68643,271.498247 L1606.68275,269.49825 L1623.24858,269.467764 C1627.23168,269.467764 1630.46028,272.694203 1630.46028,276.675305 L1630.46028,277.240065 C1630.46028,281.221167 1627.23168,284.447606 1623.24816,284.447606 L1561.30137,284.421935 Z M1469.57186,8.10633481 C1469.57186,11.3227071 1472.18248,13.9315816 1475.40167,13.9315816 C1478.62188,13.9315816 1481.23149,11.3232977 1481.23149,8.10633481 C1481.23149,4.88937193 1478.62188,2.28108797 1475.40167,2.28108797 C1472.18248,2.28108797 1469.57186,4.88996248 1469.57186,8.10633481 Z M1398.65222,49.2184193 C1398.65222,52.4347916 1401.26285,55.0436661 1404.48204,55.0436661 C1407.70225,55.0436661 1410.31186,52.4353822 1410.31186,49.2184193 C1410.31186,46.0014564 1407.70225,43.3931725 1404.48204,43.3931725 C1401.26285,43.3931725 1398.65222,46.002047 1398.65222,49.2184193 Z M1351.31248,117.502174 C1351.31248,120.718546 1353.9231,123.327421 1357.14229,123.327421 C1360.3625,123.327421 1362.97211,120.719137 1362.97211,117.502174 C1362.97211,114.285211 1360.3625,111.676927 1357.14229,111.676927 C1353.9231,111.676927 1351.31248,114.285802 1351.31248,117.502174 Z M1469.57186,89.956832 C1469.57186,93.1732043 1472.18248,95.7820788 1475.40167,95.7820788 C1478.62188,95.7820788 1481.23149,93.1737948 1481.23149,89.956832 C1481.23149,86.7398691 1478.62188,84.1315851 1475.40167,84.1315851 C1472.18248,84.1315851 1469.57186,86.7404596 1469.57186,89.956832 Z M1521.47723,297.95017 C1518.53087,297.950171 1516.13344,300.31638 1516.09689,303.258633 C1516.05899,306.248212 1518.47014,308.693817 1521.46251,308.70058 L1600.47289,308.804867 C1603.3521,308.804867 1605.68619,306.473173 1605.68619,303.597326 L1605.68619,303.034171 C1605.68619,300.157938 1603.35172,297.825026 1600.47447,297.825024 L1521.47723,297.95017 Z M1445.90174,171.824176 C1445.90174,175.040548 1448.51236,177.649422 1451.73156,177.649422 C1454.95177,177.649422 1457.56138,175.041139 1457.56138,171.824176 C1457.56138,168.607213 1454.95177,165.998929 1451.73156,165.998929 C1448.51236,165.998929 1445.90174,168.607803 1445.90174,171.824176 Z M1493.34633,117.325847 C1493.34633,120.542219 1495.95695,123.151094 1499.17615,123.151094 C1502.39636,123.151094 1505.00596,120.54281 1505.00596,117.325847 C1505.00596,114.108884 1502.39636,111.5006 1499.17615,111.5006 C1495.95695,111.5006 1493.34633,114.109475 1493.34633,117.325847 Z"/>
  </g>
</svg>
