<svg xmlns="http://www.w3.org/2000/svg" width="288" height="348" viewBox="0 0 288 348">
  <g fill="none" fill-rule="evenodd">
    <path fill="#596981" fill-rule="nonzero" d="M180.980995,175.302638 L168.707026,168.449284 C168.39061,168.272608 168.194543,167.938569 168.194543,167.57617 L168.194543,152.959582 C168.194543,152.602118 168.385352,152.271838 168.695025,152.093278 L181.277766,144.837964 C181.582685,144.662145 181.957584,144.659576 182.264884,144.831201 L195.255818,152.086515 C195.572187,152.263204 195.768218,152.597217 195.768218,152.959582 L195.768218,167.57617 C195.768218,167.938569 195.57215,168.272608 195.255734,168.449284 L182.980995,175.303068 L182.980995,185.380115 C183.410876,185.774755 183.404483,186.459586 182.980995,186.848326 L182.980995,211.040627 C182.980995,211.04841 182.980906,211.056172 182.980729,211.063912 C184.171704,210.802278 185.391462,210.668869 186.619184,210.668869 L230.973588,210.668869 C231.525872,210.668869 231.973588,211.116584 231.973588,211.668869 C231.973588,212.221153 231.525872,212.668869 230.973588,212.668869 L220.045198,212.668869 C220.027849,212.669764 220.010383,212.670217 219.992811,212.670217 C217.574656,212.670217 215.190454,213.255989 213.049506,214.376698 L200.156885,221.127201 C197.033929,222.762882 195.130017,225.769154 195.143794,229.000434 L195.222737,257.410981 C195.223712,257.761607 195.040979,258.08713 194.741145,258.268896 L188.585121,262.000826 C185.796224,263.689754 184.13414,266.511188 184.13414,269.518152 L184.13414,276.370821 C184.13414,276.923106 183.686425,277.370821 183.13414,277.370821 C182.581856,277.370821 182.13414,276.923106 182.13414,276.370821 L182.13414,269.518152 C182.13414,265.796514 184.173809,262.33412 187.54871,260.290314 L193.221175,256.851529 L193.143807,229.007477 C193.126772,225.012613 195.458987,221.330055 199.229055,219.355442 L211.999579,212.668869 L203.305613,212.668869 C200.890172,212.668869 198.507462,213.25531 196.362308,214.377276 L183.469687,221.127779 C180.346047,222.763819 178.44282,225.768529 178.456596,229.001012 L178.535539,257.411559 C178.536513,257.762266 178.353695,258.087853 178.053751,258.269592 L171.898314,261.999241 C169.10891,263.690219 167.446942,266.511927 167.446942,269.51873 L167.446942,287.576101 C167.446942,288.128386 166.999226,288.576101 166.446942,288.576101 C165.894657,288.576101 165.446942,288.128386 165.446942,287.576101 L165.446942,269.51873 C165.446942,265.797456 167.486245,262.335102 170.861707,260.288847 L176.533976,256.851956 L176.456609,229.008053 C176.439577,225.011927 178.77115,221.330967 182.541856,219.35602 L195.313484,212.668869 L186.619184,212.668869 C184.201876,212.668869 181.819283,213.255281 179.675879,214.377276 L166.783055,221.127886 C163.657722,222.763898 161.754669,225.768333 161.770167,229.001012 L161.84911,257.411559 C161.850085,257.762266 161.667267,258.087853 161.367322,258.269592 L155.211885,261.999241 C152.422481,263.690219 150.760513,266.511927 150.760513,269.51873 L150.760513,287.576101 C150.760513,288.128386 150.312798,288.576101 149.760513,288.576101 L128.164794,288.576101 C127.612509,288.576101 127.164794,288.128386 127.164794,287.576101 C127.164794,287.023816 127.612509,286.576101 128.164794,286.576101 L148.760513,286.576101 L148.760513,269.51873 C148.760513,265.797456 150.799817,262.335102 154.175279,260.288847 L159.847548,256.851956 L159.770183,229.008586 C159.751021,225.012121 162.082767,221.330887 165.855428,219.35602 L178.748255,212.605409 C179.520003,212.201426 180.31912,211.858696 181.138183,211.579066 C181.038681,211.423639 180.980995,211.23887 180.980995,211.040627 L180.980995,188.014938 L170.896081,193.749291 C170.223726,194.131597 169.390473,193.63858 169.401902,192.865217 L169.615625,178.402752 C169.627291,177.613335 170.506226,177.14813 171.165565,177.582396 L180.980995,184.047198 L180.980995,175.302638 Z M-6.24937719,230.541035 C-2.99189879,231.081228 -0.509067105,233.913289 -0.509067105,237.326018 C-0.509067105,241.124646 -3.58514486,244.203863 -7.38165482,244.203863 C-11.1784306,244.203863 -14.256168,241.12438 -14.256168,237.326018 C-14.256168,233.821693 -11.6364921,230.929256 -8.24937719,230.50244 L-8.24937719,200.70559 L-26.666343,211.659642 L-26.666343,263.467685 L-10.5369245,271.984537 C-6.80254463,273.954996 -4.48914123,277.605868 -4.48914123,281.571105 L-4.48914123,286.576101 L16.1989991,286.576101 C16.7512839,286.576101 17.1989991,287.023816 17.1989991,287.576101 C17.1989991,288.128386 16.7512839,288.576101 16.1989991,288.576101 L-5.48914123,288.576101 C-6.04142598,288.576101 -6.48914123,288.128386 -6.48914123,287.576101 L-6.48914123,281.571105 C-6.48914123,278.365359 -8.37746079,275.385329 -11.4705319,273.753258 L-28.1332775,264.954793 C-28.4611702,264.781655 -28.666343,264.441298 -28.666343,264.070501 L-28.666343,211.090909 C-28.666343,210.738275 -28.4806136,210.411708 -28.1775364,210.231444 L-8.90329252,198.767499 L-27.7922542,188.347177 L-47.4518377,199.435918 L-47.4518377,282.151184 C-47.4518377,282.197491 -47.4549853,282.243063 -47.4610782,282.287698 L-42.7697617,279.095973 C-42.3131366,278.785309 -41.6911261,278.903634 -41.3804624,279.360259 C-41.0697986,279.816884 -41.1881237,280.438895 -41.6447488,280.749559 L-51.7340471,287.613787 C-52.1906722,287.924451 -52.8126827,287.806126 -53.1233464,287.349501 C-53.4340101,286.892876 -53.3156851,286.270865 -52.85906,285.960201 L-48.6887626,283.12295 C-49.1266881,283.016553 -49.4518377,282.62184 -49.4518377,282.151184 L-49.4518377,198.851853 C-49.4518377,198.490997 -49.2574222,198.158131 -48.9431159,197.98085 L-29.3217873,186.913686 C-29.4712301,186.738939 -29.5614794,186.512056 -29.5614794,186.264095 L-29.5614794,156.964861 L-48.0641535,167.197476 C-48.3620494,167.362223 -48.723293,167.36411 -49.0228943,167.202486 L-68.7645175,156.552563 L-68.7645175,228.91151 C-68.7645175,229.463795 -69.2122328,229.91151 -69.7645175,229.91151 C-70.3168023,229.91151 -70.7645175,229.463795 -70.7645175,228.91151 L-70.7645175,212.512228 L-87.2356351,222.464059 L-87.2356351,244.550122 C-87.2356351,244.556606 -87.2356968,244.563075 -87.2358196,244.569529 L-66.9769367,256.270984 C-66.8127027,256.365845 -66.6819559,256.503396 -66.5954372,256.66503 C-66.5082916,256.827091 -66.4704535,257.003104 -66.4770936,257.17544 L-66.4732456,307.837348 C-66.4732037,308.389632 -66.9208849,308.837382 -67.4731697,308.837424 C-68.0254544,308.837466 -68.4732037,308.389784 -68.4732456,307.8375 L-68.4769648,258.870574 L-86.832891,269.473086 L-86.8403426,286.645828 C-86.8405823,287.198113 -87.2884918,287.645634 -87.8407765,287.645394 C-88.3930612,287.645155 -88.8405821,287.197245 -88.8403424,286.64496 L-88.8328909,269.472427 L-107.192725,258.870398 L-107.207825,270.593095 C-107.208537,271.14538 -107.656828,271.592518 -108.209113,271.591807 C-108.761397,271.591095 -109.208535,271.142804 -109.207824,270.590519 L-109.190495,257.137556 C-109.190035,256.780681 -108.999424,256.451098 -108.690327,256.272721 L-89.1351165,244.987601 C-89.1995069,244.855457 -89.2356351,244.707009 -89.2356351,244.550122 L-89.2356351,221.899902 C-89.2356351,221.549738 -89.0524779,221.225081 -88.752771,221.043999 L-70.7788017,210.184146 C-70.7740545,210.181277 -70.7692929,210.178453 -70.7645175,210.175673 L-70.7645175,154.876865 C-70.7645175,154.386626 -70.4254389,154.011511 -70.005507,153.905621 C-69.9174469,153.753286 -69.7880485,153.622255 -69.6227015,153.531146 L-49.5923638,142.494052 C-49.5470803,142.4691 -49.5003493,142.44791 -49.4526079,142.430482 L-49.4526079,119.447967 C-49.4526079,118.895683 -49.0048926,118.447967 -48.4526079,118.447967 C-47.9003231,118.447967 -47.4526079,118.895683 -47.4526079,119.447967 L-47.4526079,143.15167 L-28.0729341,154.002593 C-27.7570948,154.179435 -27.5614794,154.513154 -27.5614794,154.875131 L-27.5614794,186.230394 C-27.4763511,186.251079 -27.3933009,186.283118 -27.3146222,186.326522 L-6.76634155,197.662228 C-6.44741763,197.838166 -6.24937719,198.173594 -6.24937719,198.537829 L-6.24937719,230.541035 Z M206.55491,158.40297 L217.413658,152.228609 C218.086013,151.846303 218.919266,152.339321 218.907837,153.112683 L218.694114,167.575148 C218.682448,168.364565 217.803514,168.82977 217.144174,168.395505 L206.55491,161.421028 L206.55491,209.619425 C206.55491,210.17171 206.107195,210.619425 205.55491,210.619425 C205.002625,210.619425 204.55491,210.17171 204.55491,209.619425 L204.55491,145.768421 C204.55491,145.410857 204.745825,145.080502 205.055633,144.901979 L205.264716,144.781498 L205.860298,145.10115 C206.221675,145.295104 206.415478,145.679338 206.38434,146.063573 C206.373548,146.196745 206.335735,146.329917 206.268513,146.455167 C205.933438,146.962539 205.371282,147.108542 204.914496,146.863382 L192.325979,140.107039 C191.998431,139.931242 191.795433,139.588259 191.798923,139.216534 L191.93948,124.247391 C191.942752,123.898946 192.127173,123.57733 192.426249,123.398504 L204.727876,116.04301 C205.039164,115.856882 205.426831,115.853892 205.740953,116.035197 L218.418041,123.352161 C218.732054,123.533403 218.923369,123.870413 218.918043,124.232938 L218.70432,138.782097 C218.699145,139.13438 218.50897,139.457946 218.203705,139.633851 L206.054187,146.634864 L206.55491,145.768421 L206.55491,158.40297 Z M235.868592,196.430274 L256.283358,207.61425 L256.283358,185.440056 C256.16406,185.026784 256.313853,184.54804 256.733019,184.299071 L268.156646,177.51383 C268.471404,177.326875 268.863162,177.32686 269.177934,177.513792 L280.603486,184.299033 C281.260577,184.689256 281.254842,185.642447 280.593105,186.024736 L269.034697,192.702091 C268.722019,192.882727 268.336242,192.880758 268.025424,192.696941 L258.283358,186.935489 L258.283358,209.88153 L258.283358,231.262841 C258.283358,231.815126 257.835643,232.262841 257.283358,232.262841 C256.731074,232.262841 256.283358,231.815126 256.283358,231.262841 L256.283358,209.894711 L221.921651,191.070077 C221.820288,191.014547 221.732363,190.944021 221.659121,190.862769 L221.045436,190.5334 C220.717888,190.357603 220.51489,190.01462 220.51838,189.642895 L220.658938,174.673752 C220.662209,174.325307 220.84663,174.003691 221.145706,173.824865 L233.447333,166.469371 C233.758621,166.283243 234.146288,166.280253 234.46041,166.461558 L247.137498,173.778521 C247.451511,173.959763 247.642826,174.296774 247.6375,174.659299 L247.423777,189.208458 C247.418602,189.560741 247.228427,189.884307 246.923162,190.060212 L235.868592,196.430274 Z M66.3858684,199.786987 L66.3858684,336.09327 C66.3858684,336.645555 65.9381532,337.09327 65.3858684,337.09327 C64.8335837,337.09327 64.3858684,336.645555 64.3858684,336.09327 L64.3858684,199.911507 C63.3681669,200.068316 62.3671602,200.368071 61.4132765,200.810769 L55.669807,203.477034 C52.1842538,205.095649 48.159978,205.094531 44.672699,203.475115 L38.9350835,200.810812 C35.9803629,199.439525 32.5724613,199.439998 29.6187055,200.812604 L23.8863849,203.475204 C20.3974765,205.094408 16.3731859,205.093849 12.8856182,203.473181 L2.07428052,198.452643 C1.5733708,198.220032 1.35587176,197.625395 1.58848282,197.124486 C1.82109387,196.623576 2.41572994,196.406077 2.91663966,196.638688 L13.7282171,201.659338 C16.6818166,203.031872 20.0897181,203.032345 23.0441489,201.661192 L28.7760233,198.998799 C32.2638306,197.37802 36.2881213,197.377462 39.7772212,198.996755 L45.5150438,201.661154 C48.4683428,203.032601 51.8762577,203.033548 54.8275603,201.663027 L60.571237,198.996666 C64.0594692,197.377775 68.0816396,197.377775 71.5701975,198.996817 L77.3096042,201.662984 C80.263855,203.034053 83.6699362,203.034053 86.6226577,201.662874 L92.3754246,198.994835 C95.8618479,197.375817 99.8822741,197.375817 103.368346,198.994672 L114.198938,204.019064 C114.699938,204.251481 114.917667,204.846033 114.685249,205.347033 C114.452832,205.848033 113.85828,206.065762 113.35728,205.833344 L102.526337,200.808789 C99.5740935,199.437832 96.1700284,199.437832 93.2173414,200.808995 L87.4645745,203.477034 C83.9781858,205.096037 79.9559248,205.096037 76.4673323,203.476979 L70.7279256,200.810812 C69.3484275,200.170586 67.8703998,199.829313 66.3858684,199.786987 Z M117.492207,231.948661 C117.73907,231.868554 118.016733,231.884014 118.264816,232.01392 L129.81309,238.061034 C133.585482,240.033654 135.917977,243.716655 135.898801,247.71562 L135.819858,259.739098 C135.816232,260.291371 135.365587,260.736137 134.813314,260.732511 C134.261041,260.728885 133.816275,260.278239 133.819901,259.725967 L133.898834,247.70426 C133.914328,244.472943 132.010695,241.467114 128.885821,239.833087 L117.492207,233.866959 L117.492207,293.709597 C117.492207,294.261881 117.044492,294.709597 116.492207,294.709597 C115.939923,294.709597 115.492207,294.261881 115.492207,293.709597 L115.492207,218.574903 C115.492207,218.022618 115.939923,217.574903 116.492207,217.574903 C117.044492,217.574903 117.492207,218.022618 117.492207,218.574903 L117.492207,231.948661 Z M155.694815,138.378274 L167.310147,144.463405 C167.799362,144.719699 167.988182,145.324054 167.731888,145.81327 C167.475594,146.302485 166.871239,146.491305 166.382024,146.235011 L154.715613,140.123121 L133.224563,152.848022 L133.030637,163.404968 L139.992738,167.427235 C141.456397,168.273172 143.259981,168.273172 144.722195,167.427152 L152.171717,163.123282 C152.481246,162.944456 152.862692,162.944456 153.17222,163.123282 L160.621742,167.427152 C161.099955,167.703433 161.263652,168.315071 160.987371,168.793283 C160.71109,169.271496 160.099452,169.435193 159.621239,169.158912 L152.671969,165.144057 L145.723251,169.158593 C143.642106,170.36272 141.074945,170.36272 138.99209,169.158912 L132.042884,165.144094 L125.09562,169.158828 C123.012688,170.362681 120.447653,170.362681 118.365034,169.159009 L111.445872,165.163338 L102.076439,171.239664 C101.613067,171.540173 100.99382,171.408147 100.693312,170.944775 C100.392803,170.481404 100.524829,169.862157 100.988201,169.561648 L110.871477,163.152081 C111.186819,162.947573 111.590202,162.937155 111.91568,163.125112 L119.365514,167.427235 C120.829241,168.273212 122.6311,168.273212 124.094875,167.427208 L131.030034,163.419469 L131.224399,152.838565 L108.688907,139.59407 C108.671615,139.584584 108.654634,139.574601 108.637983,139.564142 L96.8701499,132.647984 C96.394009,132.368148 96.2348726,131.755307 96.5147088,131.279166 C96.794545,130.803026 97.4073855,130.643889 97.8835264,130.923725 L108.169187,136.968784 L108.169187,125.431386 C108.169187,124.879101 108.616902,124.431386 109.169187,124.431386 C109.721472,124.431386 110.169187,124.879101 110.169187,125.431386 L110.169187,138.144219 L132.232437,151.111169 L153.694201,138.403608 L153.884028,125.88822 C153.892404,125.335999 154.346857,124.895125 154.899078,124.903501 C155.4513,124.911877 155.892174,125.366331 155.883798,125.918552 L155.694815,138.378274 Z M-120.454448,175.31183 C-117.721142,175.647505 -115.03269,176.488965 -112.532628,177.839793 L-101.090162,184.021521 L-101.083051,160.403395 C-101.082885,159.851111 -100.635035,159.40353 -100.08275,159.403696 C-99.5304655,159.403863 -99.0828851,159.851713 -99.0830514,160.403997 L-99.0907531,185.986397 C-99.0909194,186.538682 -99.5387694,186.986263 -100.091054,186.986096 C-100.601317,186.985943 -101.022203,186.603639 -101.083166,186.109895 C-101.272166,186.126977 -101.468117,186.090537 -101.647587,185.993579 L-113.483308,179.599397 C-119.860022,176.153945 -127.582026,176.346801 -133.778941,180.106362 L-151.481424,190.842917 C-151.953644,191.129319 -152.568629,190.978683 -152.855031,190.506462 C-153.141433,190.034241 -152.990797,189.419256 -152.518576,189.132854 L-134.816208,178.396369 C-130.762473,175.937038 -126.114162,174.867832 -121.538015,175.205395 C-121.767408,175.022157 -121.914371,174.74006 -121.914371,174.423638 L-121.914371,148.19585 C-121.914371,147.837304 -121.722416,147.506198 -121.411266,147.328039 L-100.866836,135.564643 C-100.559111,135.388445 -100.181088,135.388387 -99.87331,135.564492 L-79.3481346,147.308623 C-79.0358262,147.48732 -78.8435998,147.820025 -78.8447715,148.179841 L-78.9602978,183.654976 C-78.9620964,184.207258 -79.4112672,184.653512 -79.9635491,184.651714 C-80.5158309,184.649915 -80.9620858,184.200744 -80.9602872,183.648463 L-80.8466566,148.755446 L-100.369767,137.584679 L-119.914371,148.775591 L-119.914371,174.423638 C-119.914371,174.81009 -120.133585,175.145343 -120.454448,175.31183 Z M-149.315149,209.982782 L-131.156538,199.43643 L-113.388529,210.425656 L-113.388529,238.196039 C-113.388529,238.748324 -112.940814,239.196039 -112.388529,239.196039 C-111.836245,239.196039 -111.388529,238.748324 -111.388529,238.196039 L-111.388529,209.868333 C-111.388529,209.521871 -111.567863,209.200095 -111.862521,209.017853 L-130.614368,197.420139 C-130.928227,197.226022 -131.323486,197.220543 -131.642605,197.405884 L-151.253198,208.795533 C-151.712849,209.062495 -151.880447,209.639441 -151.645087,210.108171 C-151.755114,210.534272 -151.572484,210.997881 -151.171815,211.226359 L-133.280813,221.428552 L-133.280813,254.220921 C-133.280813,254.773206 -132.833098,255.220921 -132.280813,255.220921 C-131.728528,255.220921 -131.280813,254.773206 -131.280813,254.220921 L-131.280813,220.847631 C-131.280813,220.488454 -131.473439,220.156866 -131.785452,219.978944 L-149.315149,209.982782 Z M-69.4753211,257.137574 L-87.8234253,246.539778 L-106.190843,257.139435 L-87.8323203,267.740706 L-69.4753211,257.137574 Z M-47.4526079,145.443832 L-47.4526079,154.988604 C-47.4526079,155.540889 -47.9003231,155.988604 -48.4526079,155.988604 C-49.0048926,155.988604 -49.4526079,155.540889 -49.4526079,154.988604 L-49.4526079,144.700569 L-67.7909167,154.805323 L-48.5540637,165.18294 L-30.26404,155.067928 L-47.4526079,145.443832 Z M79.0380444,186.543268 C78.728796,186.750324 78.315791,186.775723 77.97362,186.57427 C65.3469649,179.140341 65.4222377,160.843742 78.1101782,153.513291 L79.8295949,152.521128 C80.3079528,152.245099 80.9195044,152.409119 81.1955336,152.887477 C81.4715628,153.365835 81.3075429,153.977386 80.829185,154.253416 L79.1102324,155.245311 C67.7490799,161.80921 67.6816723,178.194014 78.9883177,184.850788 C79.1929743,184.97128 79.3389648,185.153303 79.4166194,185.359503 C79.4209309,185.356612 79.4252719,185.35375 79.4296424,185.350915 L89.3129187,178.941348 C89.6282604,178.73684 90.0316434,178.726422 90.3571214,178.914379 L97.8069559,183.216502 C99.2706824,184.062479 101.072542,184.062479 102.536316,183.216475 L109.983913,178.912605 C110.293456,178.733724 110.674949,178.733703 110.984513,178.912549 L118.43418,183.216502 C119.897838,184.062439 121.701423,184.062439 123.163637,183.216419 L130.613159,178.912549 C130.922688,178.733723 131.304133,178.733723 131.613662,178.912549 L139.063184,183.216419 C139.541396,183.4927 139.705094,184.104338 139.428813,184.58255 C139.152531,185.060763 138.540893,185.22446 138.062681,184.948179 L131.113411,180.933324 L124.164692,184.94786 C122.083547,186.151987 119.516386,186.151987 117.433532,184.948179 L110.484326,180.933361 L103.537061,184.948095 C101.45413,186.151948 98.8890947,186.151948 96.806476,184.948276 L89.8873139,180.952605 L80.5178804,187.028931 C80.0545091,187.32944 79.435262,187.197414 79.1347534,186.734042 C79.0950413,186.672808 79.0628828,186.608852 79.0380444,186.543268 Z M-55.5077272,78.4211751 L-55.5077272,69.845695 L-63.3816634,74.3947962 C-63.8598749,74.6710789 -64.4715134,74.5073833 -64.7477962,74.0291717 C-65.0240789,73.5509602 -64.8603833,72.9393217 -64.3821717,72.6630389 L-55.5077272,67.5359024 L-55.5077272,58.4168748 L-63.7270099,62.9507341 C-64.2106009,63.217489 -64.8188764,63.0417086 -65.0856313,62.5581175 C-65.3523862,62.0745265 -65.1766057,61.466251 -64.6930147,61.1994961 L-54.9907296,55.847594 C-54.8108565,55.7483738 -54.6200541,55.7110477 -54.4373235,55.7243968 C-54.2679083,55.7238034 -54.0960602,55.7663027 -53.9384204,55.8564292 L-44.1225344,61.4684129 C-43.6430781,61.7425299 -43.4766177,62.3534217 -43.7507347,62.832878 C-44.0248517,63.3123343 -44.6357435,63.4787947 -45.1151998,63.2046777 L-53.5077272,58.4064632 L-53.5077272,67.2149663 L-44.0865398,72.5789857 C-43.6065946,72.8522459 -43.4390434,73.4628394 -43.7123035,73.9427845 C-43.9855637,74.4227297 -44.5961572,74.590281 -45.0761023,74.3170208 L-53.5077272,69.5164158 L-53.5077272,77.9124808 L-43.8561908,83.8041782 C-43.3847958,84.0919372 -43.2359295,84.7073531 -43.5236885,85.178748 C-43.8114475,85.650143 -44.4268634,85.7990094 -44.8982583,85.5112504 L-53.5077272,80.2556741 L-53.5077272,104.720797 C-53.5077272,105.273081 -53.9554424,105.720797 -54.5077272,105.720797 C-55.0600119,105.720797 -55.5077272,105.273081 -55.5077272,104.720797 L-55.5077272,80.7308386 L-63.3817472,85.2789719 C-63.8599855,85.5552084 -64.4716081,85.3914536 -64.7478446,84.9132153 C-65.024081,84.434977 -64.8603262,83.8233543 -64.3820879,83.5471179 L-55.5077272,78.4211751 Z M-23.6709382,101.461443 L-14.86775,106.835274 C-14.3963551,107.123033 -14.2474887,107.738449 -14.5352477,108.209844 C-14.8230067,108.681239 -15.4384226,108.830105 -15.9098175,108.542346 L-23.6709382,103.804636 L-23.6709382,123.556101 C-23.6709382,124.108386 -24.1186534,124.556101 -24.6709382,124.556101 C-25.2232229,124.556101 -25.6709382,124.108386 -25.6709382,123.556101 L-25.6709382,103.271917 L-34.3933064,108.310067 C-34.8715447,108.586304 -35.4831673,108.422549 -35.7594038,107.944311 C-36.0356402,107.466072 -35.8718854,106.85445 -35.3936471,106.578213 L-25.6709382,100.962254 L-25.6709382,92.3864717 L-34.3932226,97.425699 C-34.8714341,97.7019818 -35.4830726,97.5382861 -35.7593554,97.0600746 C-36.0356381,96.581863 -35.8719425,95.9702245 -35.3937309,95.6939418 L-25.7434327,90.1185622 C-25.719671,90.1048341 -25.6954844,90.0921594 -25.6709382,90.0805383 L-25.6709382,81.4334726 L-33.8969281,85.8893622 C-34.3825441,86.1524127 -34.9894582,85.9719878 -35.2525087,85.4863719 C-35.5155593,85.0007559 -35.3351343,84.3938418 -34.8495184,84.1307913 L-26.192074,79.4411896 C-26.1714574,79.379162 -26.1444228,79.3182506 -26.1107333,79.2593245 C-25.8759812,78.8487211 -25.394235,78.6676721 -24.959572,78.7963099 C-24.4247944,78.6323775 -23.8561274,78.9508694 -23.7079274,79.4811697 L-14.9303822,84.4995084 C-14.450926,84.7736254 -14.2844655,85.3845172 -14.5585825,85.8639735 C-14.8326995,86.3434298 -15.4435913,86.5098902 -15.9230476,86.2357732 L-23.6709382,81.8061134 L-23.6709382,90.7288822 L-15.098099,95.6098886 C-14.6181539,95.8831487 -14.4506026,96.4937422 -14.7238627,96.9736874 C-14.9971229,97.4536325 -15.6077164,97.6211838 -16.0876615,97.3479237 L-23.6709382,93.0303317 L-23.6709382,101.461443 Z M-89.6254895,81.9479805 L-80.599143,87.4580362 C-80.127748,87.7457952 -79.9788817,88.361211 -80.2666407,88.832606 C-80.5543997,89.304001 -81.1698156,89.4528673 -81.6412105,89.1651083 L-89.6254895,84.2911738 L-89.6254895,108.746141 C-86.9602241,108.017971 -84.0790658,108.344909 -81.6292836,109.725076 L-59.400095,121.270774 C-58.9099771,121.525338 -58.719023,122.129022 -58.9735871,122.61914 C-59.2281512,123.109258 -59.8318353,123.300212 -60.3219532,123.045648 L-82.5809252,111.483834 C-84.7478127,110.263482 -87.3068648,110.048096 -89.6254895,110.841282 L-89.6254895,126.744509 C-89.6254895,127.296794 -90.0732047,127.744509 -90.6254895,127.744509 C-91.1777742,127.744509 -91.6254895,127.296794 -91.6254895,126.744509 L-91.6254895,111.791303 L-111.574355,122.579314 C-112.060154,122.842026 -112.666942,122.661178 -112.929655,122.175379 C-113.192367,121.689579 -113.011519,121.082791 -112.525719,120.820079 L-92.1951275,109.826266 C-92.0076796,109.716687 -91.8177036,109.61329 -91.6254895,109.516076 L-91.6254895,84.023579 L-100.124699,88.9328299 C-100.602938,89.2090663 -101.21456,89.0453115 -101.490797,88.5670732 C-101.767033,88.0888349 -101.603278,87.4772123 -101.12504,87.2009758 L-91.6254895,81.7139155 L-91.6254895,73.1383547 L-100.124616,78.0486541 C-100.602827,78.3249369 -101.214466,78.1612412 -101.490748,77.6830297 C-101.767031,77.2048181 -101.603335,76.5931796 -101.125124,76.3168969 L-91.6254895,70.8285621 L-91.6254895,62.06494 L-99.847579,66.5660627 C-100.332022,66.8312674 -100.939731,66.6535397 -101.204936,66.1690968 C-101.470141,65.6846539 -101.292413,65.0769445 -100.80797,64.8117398 L-91.8589085,59.9126415 C-91.8535102,59.902401 -91.8479165,59.8922146 -91.8421263,59.8820869 C-91.7837017,59.7798969 -91.7099783,59.6919255 -91.6254895,59.619408 L-91.6254895,48.5228866 L-99.8367029,53.1517527 C-100.317809,53.422964 -100.927682,53.252811 -101.198894,52.7717051 C-101.470105,52.2905993 -101.299952,51.6807257 -100.818846,51.4095143 L-91.867474,46.3634022 C-91.8594877,46.3475496 -91.8510399,46.3318198 -91.8421263,46.316229 C-91.6280126,45.941724 -91.2084249,45.7581849 -90.8064978,45.826413 C-90.3633026,45.7435112 -89.9163332,45.9768009 -89.7237661,46.3754496 L-80.6617752,51.5564129 C-80.1823189,51.8305299 -80.0158585,52.4414217 -80.2899755,52.920878 C-80.5640925,53.4003343 -81.1749843,53.5667947 -81.6544406,53.2926777 L-89.6254895,48.7354328 L-89.6254895,59.9974947 L-80.6617752,65.1222709 C-80.1823189,65.3963878 -80.0158585,66.0072796 -80.2899755,66.4867359 C-80.5640925,66.9661922 -81.1749843,67.1326526 -81.6544406,66.8585357 L-89.6254895,62.3012908 L-89.6254895,71.2247805 L-80.829492,76.2328437 C-80.3495468,76.5061038 -80.1819955,77.1166973 -80.4552557,77.5966425 C-80.7285158,78.0765876 -81.3391094,78.2441389 -81.8190545,77.9708788 L-89.6254895,73.52623 L-89.6254895,81.9479805 Z M231.424598,4.25504853 L222.363189,9.46260858 C221.884347,9.73779734 221.273084,9.57270383 220.997895,9.0938619 C220.722707,8.61501998 220.8878,8.00375733 221.366642,7.72856857 L231.501679,1.90399847 C231.652634,1.54318184 232.009011,1.28966857 232.424598,1.28966857 C232.46907,1.28966857 232.512864,1.29257159 232.555801,1.29819845 L244.926309,-5.81108858 C245.232037,-5.98678966 245.607704,-5.98848572 245.915006,-5.81555233 L270.789748,8.1826191 C271.271055,8.45347299 271.441661,9.06322003 271.170807,9.54452722 C270.899953,10.0258344 270.290206,10.1964405 269.808899,9.92558662 L257.5773,3.04229821 L257.5773,33.0717747 C257.5773,33.95488 256.516251,34.4044967 255.881755,33.7902573 C255.835683,33.7456558 255.736213,33.6533123 255.585949,33.520061 C255.329676,33.292804 255.02771,33.0381853 254.682685,32.763033 C253.69203,31.9730005 252.559852,31.1816623 251.307769,30.4433493 C246.299332,27.4900349 240.9846,26.2534448 235.728963,27.6690008 L232.829277,28.9522091 C232.168151,29.2447795 231.424598,28.7607197 231.424598,28.0377502 L231.424598,4.25504853 Z M233.424598,3.1056556 L233.424598,26.5016738 L234.988946,25.8093974 L235.129431,25.7593867 C241.00771,24.1491697 246.868721,25.5039683 252.323643,28.7205604 C253.514927,29.4230223 254.603897,30.1699571 255.5773,30.922667 L255.5773,2.28966857 C255.5773,2.17045038 255.598162,2.05610482 255.636435,1.95008347 L245.429776,-3.79367749 L233.424598,3.1056556 Z M163.165619,85.8068593 C157.390034,95.30084 145.045448,98.8960379 134.881274,93.8023562 C134.86841,93.7959097 134.855743,93.7892264 134.843276,93.7823142 C128.065594,90.3726965 123.332386,83.529134 123.088821,75.5104652 C122.730782,63.7917078 132.098012,54.0119626 143.999431,53.6623762 C146.701257,53.5817752 149.349815,53.9957221 151.842854,54.8653249 C151.833299,54.7252227 151.826382,54.5854137 151.822139,54.4457318 C151.610472,47.5070756 157.153387,41.7207286 164.19376,41.5136644 C165.912366,41.4629529 167.593836,41.7541148 169.163543,42.3546717 C169.663607,33.5977585 174.493088,25.2826998 182.803443,20.5861791 C182.935684,20.5114447 183.077575,20.469658 183.219637,20.4581851 C187.158067,18.2636064 191.694141,17.0133412 196.5221,17.0133412 C210.799309,17.0133412 222.570192,27.9697907 223.789062,42.0064922 C227.285548,40.5244664 231.060702,39.748329 234.944227,39.748329 C248.652239,39.748329 260.361232,49.4580788 263.022646,62.7463937 C263.132515,63.2949639 262.776877,63.8287343 262.228307,63.9386032 C261.679737,64.0484722 261.145967,63.6928345 261.036098,63.1442643 C258.563347,50.7979417 247.681768,41.774329 234.944227,41.774329 C230.85858,41.774329 226.905572,42.6975817 223.309738,44.4500026 C222.649669,44.7716853 221.877322,44.3061668 221.853485,43.5722719 C221.409896,29.9153629 210.209376,19.0393412 196.5221,19.0393412 C182.732296,19.0393412 171.513607,30.0548095 171.175971,43.7716465 C171.19413,43.8867689 171.192581,44.0055288 171.169718,44.1226103 C171.168669,44.2176993 171.168144,44.312914 171.168144,44.4082514 C171.168144,44.4602431 171.164227,44.51132 171.156672,44.5612031 C171.27085,48.5761344 172.374944,52.6295851 174.562647,56.3703105 C179.37287,64.5981987 190.070535,67.4358825 198.447574,62.7001709 C204.156948,59.4730775 206.120457,52.3163942 202.840885,46.71032 C200.626054,42.9227948 195.698706,41.6150139 191.839257,43.7959652 C189.290595,45.2374709 188.41594,48.4239559 189.877406,50.9217739 C190.159939,51.4046564 189.997524,52.0251484 189.514641,52.3076815 C189.031759,52.5902145 188.411267,52.4277992 188.128734,51.9449167 C186.09423,48.4677083 187.312735,44.0285303 190.842181,42.0323002 C195.662646,39.308284 201.814114,40.9409616 204.589718,45.6874513 C208.442117,52.2727131 206.134846,60.6823553 199.444558,64.4638886 C190.106883,69.7426667 178.184758,66.58018 172.813695,57.392974 C170.433265,53.3227082 169.239539,48.9084438 169.128879,44.5381709 C167.614367,43.8360869 165.956566,43.4885305 164.253418,43.5387858 C158.324652,43.7131566 153.669911,48.5723234 153.847202,54.3840939 C153.865391,54.9830178 153.944326,55.5931643 154.081459,56.2359869 C154.254091,57.0452132 153.436251,57.7088599 152.679919,57.373285 C149.99344,56.1813286 147.064623,55.5978365 144.05938,55.687489 C133.269316,56.0044311 124.790271,64.8568771 125.113881,75.4487743 C125.435659,86.0423763 134.440296,94.3805371 145.232196,94.0617088 C152.296436,93.854345 158.583662,89.9478194 161.869572,83.9384164 C161.90915,83.8660339 161.956276,83.8004033 162.009437,83.7419679 C162.034128,83.6952906 162.05865,83.6484725 162.083003,83.6015139 C165.429029,77.1416106 162.818088,69.2391299 156.240222,65.9447525 C151.777906,63.7088599 146.316304,65.4535291 144.045989,69.8322521 C142.539692,72.7381974 143.715978,76.2969941 146.68114,77.7828874 C148.61687,78.7528357 150.984769,77.9971087 151.967161,76.1045873 C152.224916,75.6080366 152.836402,75.4144547 153.332953,75.67221 C153.829504,75.9299654 154.023086,76.5414513 153.76533,77.0380021 C152.270622,79.9174706 148.695671,81.0584342 145.773497,79.5942016 C141.802481,77.6042583 140.218863,72.8130963 142.247325,68.8997905 C145.029699,63.5334678 151.698736,61.4030921 157.147645,64.1333278 C164.53436,67.832799 167.589616,76.5949676 164.169542,83.9480563 C164.376188,84.0284169 164.557993,84.1768548 164.677933,84.3835374 C169.78819,93.1896332 179.189355,98.7248253 189.55259,98.7248253 C199.204217,98.7248253 208.043156,93.9287905 213.359523,86.0808364 C213.731273,85.5320637 214.521188,85.4822717 214.958905,85.98002 C219.986177,91.6967644 227.193228,95.0335927 234.942879,95.0335927 C241.02587,95.0335927 245.303444,93.7604201 250.338487,90.1957736 C250.376126,90.1238739 250.423075,90.0553709 250.479434,89.9919751 C251.97699,88.3074321 253.16574,86.3501174 253.988394,84.1844847 C256.5273,77.5055724 253.154526,69.9213845 246.452781,67.2549144 C241.926037,65.4538958 236.876605,67.6491562 235.162607,72.1563379 C234.01974,75.1646374 235.541315,78.5861722 238.562076,79.7885738 C240.514945,80.564998 242.685425,79.6214462 243.421436,77.6828394 C243.620013,77.1598021 244.204996,76.8967745 244.728033,77.0953508 C245.25107,77.293927 245.514098,77.8789103 245.315522,78.4019476 C244.176453,81.4021832 240.81371,82.8640355 237.813188,81.6710835 C233.76734,80.0606507 231.73157,75.482854 233.268794,71.4365128 C235.386322,65.8681957 241.627696,63.1547337 247.20176,65.3724407 C254.928513,68.446738 258.815644,77.1875349 255.882263,84.9041603 C255.046835,87.103422 253.86824,89.1117274 252.396164,90.8713103 C252.349325,91.1142039 252.213945,91.3406213 251.998288,91.4978422 C246.403329,95.5767511 241.632486,97.0595927 234.942879,97.0595927 C227.038128,97.0595927 219.654465,93.8314918 214.30078,88.2572303 C208.551574,96.0376842 199.449996,100.750825 189.55259,100.750825 C178.619904,100.750825 168.685848,94.9949123 163.165619,85.8068593 Z M0.5603678,49.3884745 C0.595406564,49.3613724 0.63265407,49.3362831 0.67204038,49.3134693 L24.1104044,35.7372081 C24.5883071,35.4603913 25.200128,35.6234037 25.4769447,36.1013063 C25.7537615,36.579209 25.5907491,37.1910299 25.1128465,37.4678466 L2.53442578,50.5460008 L31.7806753,67.6950924 C35.4852377,69.8676415 35.5274451,75.2127975 31.8577411,77.4439333 C26.1743648,80.8984258 26.2632467,89.1813957 32.0183359,92.513632 L46.3379188,100.801622 C53.55596,104.980401 53.5514164,115.408568 46.329402,119.580825 L-4.66208015,149.037531 C-15.390799,155.233768 -18.1257818,169.225816 -11.1204637,178.957032 C-10.7977963,179.405256 -10.8995794,180.030186 -11.3478027,180.352854 C-11.7960261,180.675521 -12.4209565,180.573738 -12.743624,180.125515 C-20.4306284,169.447355 -17.4312381,154.10261 -5.6624152,147.305673 L45.3289526,117.849033 C51.2189236,114.446317 51.2226296,105.940541 45.335958,102.532539 L31.0163287,94.2445223 C23.9470331,90.1513516 23.8378676,79.9781349 30.8188321,75.7349371 C33.1952251,74.2901188 33.1678804,70.8271787 30.7689747,69.4203349 L-22.2364244,38.3396166 C-22.7128456,38.060258 -22.8725965,37.4475773 -22.5932379,36.9711561 C-22.3138793,36.4947348 -21.7011986,36.334984 -21.2247774,36.6143426 L0.5603678,49.3884745 Z M1.15743575,7.52915786 L-8.94566657,1.69218182 C-15.8997653,-2.3249848 -24.4459642,-2.41533241 -31.4828138,1.45399161 L-42.9844692,7.77921101 C-43.0074823,7.87423718 -43.0449332,7.96747048 -43.0975926,8.05586882 C-43.3802413,8.53034557 -43.9940127,8.68585297 -44.4684894,8.40320432 L-55.0275891,2.1130852 C-62.2638301,-2.1975231 -71.2786313,-2.1975231 -78.5148723,2.1130852 C-78.9893509,2.39573076 -79.6031213,2.24021936 -79.8857669,1.76574076 C-80.1684124,1.29126217 -80.012901,0.677491778 -79.5384224,0.394846224 C-71.6715231,-4.29144344 -61.8709383,-4.29144344 -54.0040334,0.394849562 L-44.2610797,6.19878558 L-32.4465207,-0.298512034 C-24.7963799,-4.505064 -15.5053132,-4.40684189 -7.94520595,-0.039602964 L3.17451675,6.38471631 L13.2295942,0.394846224 C21.0964936,-4.29144344 30.8970784,-4.29144344 38.7639833,0.394849562 L49.3230885,6.68497201 C49.7975653,6.96762066 49.9530727,7.58139207 49.670424,8.05586882 C49.3877754,8.53034557 48.774004,8.68585297 48.2995272,8.40320432 L37.7404276,2.1130852 C30.5041866,-2.1975231 21.4893854,-2.1975231 14.25315,2.11308187 L3.69404469,8.40320432 C3.67621526,8.41382541 3.65813663,8.42384653 3.6398369,8.43326747 L-9.87528621,15.9837312 C-10.3574316,16.2530902 -10.9666463,16.0805929 -11.2360053,15.5984475 C-11.5053644,15.1163022 -11.332867,14.5070875 -10.8507217,14.2377284 L1.15743575,7.52915786 Z M172.866573,-96.2965511 C170.052977,-97.5634734 166.936446,-98.266622 163.665453,-98.266622 C159.557283,-98.266622 155.611523,-97.1584123 152.15648,-95.091026 C151.638327,-94.7809803 150.965686,-94.997382 150.725517,-95.5513942 C150.674896,-95.6681657 150.566258,-95.9015733 150.398978,-96.2348374 C150.116003,-96.7985961 149.773047,-97.4289628 149.369567,-98.1091482 C148.2145,-100.056355 146.810041,-102.004454 145.153534,-103.819687 C140.346331,-109.087516 134.454162,-112.175236 127.406237,-112.033808 C120.044126,-111.887288 113.36507,-108.695746 108.937851,-103.298475 C108.58759,-102.871467 107.957489,-102.809252 107.530481,-103.159514 C107.103474,-103.509775 107.041259,-104.139876 107.39152,-104.566884 C112.192655,-110.42 119.423767,-113.875338 127.366276,-114.033409 C135.054694,-114.18769 141.465427,-110.828222 146.630862,-105.167835 C148.385749,-103.244795 149.868859,-101.187601 151.089698,-99.1295152 C151.467824,-98.4920707 151.796929,-97.8938813 152.077686,-97.3463789 C154.170687,-98.4757075 156.41354,-99.2924486 158.747651,-99.7702656 C158.882792,-99.892086 159.052789,-99.9785161 159.245278,-100.011986 C164.331671,-100.89641 169.323669,-100.139985 173.679511,-98.124345 C181.149433,-94.7637473 186.659666,-87.7548269 187.869728,-79.2944332 C189.78907,-79.8590696 191.787585,-80.1497894 193.823598,-80.1497894 C205.480014,-80.1497894 214.929028,-70.6954166 214.929028,-59.0329567 C214.929028,-47.3704968 205.480014,-37.9161241 193.823598,-37.9161241 C190.458227,-37.9161241 187.205124,-38.7084533 184.272301,-40.2019871 C183.539293,-39.2148303 182.496362,-38.0006097 181.588351,-37.055742 C181.20567,-36.6575285 180.572631,-36.6449366 180.174417,-37.0276172 C179.776203,-37.4102977 179.763612,-38.0433375 180.146292,-38.441551 C181.224679,-39.5637098 182.531234,-41.1227478 183.118959,-42.0420855 C183.404994,-42.489509 183.990864,-42.6353298 184.453258,-42.3741875 C187.292086,-40.770926 190.49531,-39.9161241 193.823598,-39.9161241 C204.37519,-39.9161241 212.929028,-48.4748126 212.929028,-59.0329567 C212.929028,-69.5911009 204.37519,-78.1497894 193.823598,-78.1497894 C191.74963,-78.1497894 189.720324,-77.8169939 187.787065,-77.1728015 C187.827234,-68.8223808 181.845739,-61.4156317 173.348826,-59.9366712 C166.548175,-58.755464 160.079436,-63.3110807 158.899219,-70.1137399 C158.044115,-75.0371639 161.341373,-79.7235999 166.263193,-80.5790182 C169.871554,-81.2076058 173.306288,-78.7885238 173.931963,-75.1775101 C174.026252,-74.6333335 173.661546,-74.1157552 173.11737,-74.0214665 C172.573193,-73.9271779 172.055615,-74.291884 171.961326,-74.8360605 C171.524315,-77.3582228 169.125712,-79.0475578 166.606046,-78.6086244 C162.77223,-77.9423025 160.203575,-74.2914377 160.869751,-70.4557987 C161.861167,-64.7413715 167.294389,-60.9150184 173.006217,-61.9071075 C181.394791,-63.3672106 187.014299,-71.3555904 185.556917,-79.7502434 C184.24665,-87.2942399 179.318999,-93.3009732 172.866573,-96.2965511 Z M95.0318091,-30.9498592 L106.153431,-24.5255064 L116.206671,-30.5153742 C124.073571,-35.2016638 133.874156,-35.2016638 141.74106,-30.5153708 L152.300166,-24.2252484 C152.774642,-23.9425997 152.93015,-23.3288283 152.647501,-22.8543516 C152.364853,-22.3798748 151.751081,-22.2243674 151.276604,-22.5070161 L140.717505,-28.7971352 C133.481264,-33.1077435 124.466463,-33.1077435 117.230296,-28.7971796 L106.673116,-22.5070571 C106.36191,-22.3216359 105.974759,-22.3190194 105.661075,-22.5002175 L94.0314106,-29.2180386 C87.0773326,-33.2351932 78.5311805,-33.3255457 71.4961291,-29.4561959 L59.5834405,-22.9059918 C59.2768276,-22.7374004 58.9043967,-22.7413322 58.6014114,-22.9163591 L47.7727086,-29.1718248 C40.6692964,-33.2756796 31.9183816,-33.2756796 24.8150037,-29.1718446 L13.2681485,-22.5002691 C12.953122,-22.3182522 12.5640947,-22.3216953 12.2523392,-22.5092597 L-4.94952919,-32.8585822 C-5.52455113,-33.204538 -5.60235707,-34.0074813 -5.10445653,-34.4574043 L36.2577581,-71.8339729 C41.6310636,-76.6902627 41.3526677,-85.2159592 35.6740519,-89.7120827 C35.1841698,-90.0999537 35.1660194,-90.8370883 35.6362184,-91.2485992 L53.413793,-106.80726 C53.8293916,-107.170986 54.4611586,-107.128935 54.8248841,-106.713336 C55.1886097,-106.297737 55.1465582,-105.66597 54.7309596,-105.302245 L37.8184055,-90.5006363 C43.5797715,-85.0796577 43.5914116,-75.7661984 37.5987267,-70.3501255 L-2.76332473,-33.8773447 L12.7781419,-24.5269855 L23.8144762,-30.9035907 C31.5369412,-35.365091 41.0507369,-35.365091 48.7731658,-30.9036116 L59.1137399,-24.9301253 L70.5323849,-31.2086791 C78.1806398,-35.415297 87.4717531,-35.3170686 95.0318091,-30.9498592 Z M-39.8220823,-30.3655252 C-39.4113176,-29.9963494 -39.377603,-29.3640827 -39.7467788,-28.9533179 C-40.1159546,-28.5425532 -40.7482213,-28.5088386 -41.1589861,-28.8780144 C-48.5337498,-35.5061002 -58.0684622,-39.2350269 -68.186043,-39.2350269 C-87.9424973,-39.2350269 -104.717447,-24.9688472 -108.048852,-5.70685784 C-108.142973,-5.16265238 -108.66044,-4.7977873 -109.204645,-4.89190886 C-109.74885,-4.98603042 -110.113716,-5.50349671 -110.019594,-6.04770216 C-106.523071,-26.264398 -88.9197913,-41.2350269 -68.186043,-41.2350269 C-57.5699705,-41.2350269 -47.5604634,-37.3204129 -39.8220823,-30.3655252 Z M-130.008639,18.400293 L-120.583217,24.2947508 L-109.270419,17.1988496 C-108.802555,16.9053842 -108.185376,17.0467619 -107.891911,17.5146257 C-107.598445,17.9824894 -107.739823,18.5996687 -108.207687,18.8931341 L-120.05106,26.3218361 C-120.375579,26.5253893 -120.787864,26.5256657 -121.112656,26.3225479 L-131.068543,20.0963482 C-132.79437,19.0186253 -132.751124,16.4905506 -130.988977,15.4712317 L-109.239223,2.90832559 C-108.925979,2.72739242 -108.539441,2.7297372 -108.228415,2.91445724 L-85.2329019,16.5716328 C-84.7580498,16.8536503 -84.6017265,17.4672144 -84.8837441,17.9420666 C-85.1657617,18.4169187 -85.7793258,18.573242 -86.2541779,18.2912244 L-108.746083,4.93314476 L-129.988092,17.202771 C-130.444328,17.4666821 -130.455525,18.1212271 -130.008639,18.400293 Z M69.834352,-100.659949 C70.2520025,-101.021316 70.8835214,-100.97569 71.2448889,-100.55804 C71.6062565,-100.140389 71.5606301,-99.5088701 71.1429796,-99.1475026 L63.9827133,-92.9521609 C61.6950478,-90.9704552 58.8625108,-89.7215557 55.8529354,-89.3665588 L51.3223784,-88.8329098 C50.7738855,-88.7683035 50.2768703,-89.1605711 50.212264,-89.709064 C50.1476577,-90.2575569 50.5399252,-90.754572 51.0884181,-90.8191783 L55.6188116,-91.352808 C58.230631,-91.6608874 60.6885249,-92.7446021 62.6736459,-94.4642264 L69.834352,-100.659949 Z M148.068053,-8.56800327 C148.620337,-8.56800327 149.068053,-8.12028802 149.068053,-7.56800327 C149.068053,-7.01571852 148.620337,-6.56800327 148.068053,-6.56800327 L76.9250219,-6.56800327 C73.8091014,-6.56800327 70.9241272,-3.95483882 70.9241272,-1.05825633 L70.9241272,-0.553505306 C70.9241272,2.17522532 73.601466,4.22608653 76.9250219,4.22608653 L111.604096,4.22608653 C115.230707,4.22608653 117.810482,7.70727648 117.810482,11.6915233 L117.810482,13.3040294 C117.810482,17.2253204 115.254611,20.4419559 111.604096,20.4419559 L42.36725,20.4419559 C39.254717,20.4419559 36.8246096,22.6494501 36.8246096,25.549058 L36.8246096,26.5662661 C36.8246096,29.3571535 39.1254128,31.2360457 42.36725,31.2360457 L127.454307,31.2360457 C131.136828,31.2360457 134.336522,34.953973 134.336522,38.8112947 L134.336522,40.2350008 C134.336522,44.041214 131.172145,47.4538416 127.454307,47.4538416 L51.7499123,47.4538416 C48.9434634,47.4538416 46.7695,49.3358552 46.7695,51.8481273 L46.7695,52.4203069 C46.7695,54.9354678 48.9468389,56.8261518 51.7499123,56.8261518 L81.2899912,56.8261518 C81.842276,56.8261518 82.2899912,57.2738671 82.2899912,57.8261518 C82.2899912,58.3784366 81.842276,58.8261518 81.2899912,58.8261518 L51.7499123,58.8261518 C47.9000894,58.8261518 44.7695,56.1077164 44.7695,52.4203069 L44.7695,51.8481273 C44.7695,48.1620584 47.8978325,45.4538416 51.7499123,45.4538416 L127.454307,45.4538416 C130.032418,45.4538416 132.336522,42.9689776 132.336522,40.2350008 L132.336522,38.8112947 C132.336522,35.9974526 129.960021,33.2360457 127.454307,33.2360457 L42.36725,33.2360457 C38.1000626,33.2360457 34.8246096,30.5612306 34.8246096,26.5662661 L34.8246096,25.549058 C34.8246096,21.4997236 38.1907357,18.4419559 42.36725,18.4419559 L111.604096,18.4419559 C114.035974,18.4419559 115.810482,16.208688 115.810482,13.3040294 L115.810482,11.6915233 C115.810482,8.70413392 113.974097,6.22608653 111.604096,6.22608653 L76.9250219,6.22608653 C72.5956668,6.22608653 68.9241272,3.41366017 68.9241272,-0.553505306 L68.9241272,-1.05825633 C68.9241272,-5.10597876 72.7462561,-8.56800327 76.9250219,-8.56800327 L148.068053,-8.56800327 Z M159.434494,-6.56800327 C158.88221,-6.56800327 158.434494,-7.01571852 158.434494,-7.56800327 C158.434494,-8.12028802 158.88221,-8.56800327 159.434494,-8.56800327 L209.162797,-8.56800327 C209.715082,-8.56800327 210.162797,-8.12028802 210.162797,-7.56800327 C210.162797,-7.01571852 209.715082,-6.56800327 209.162797,-6.56800327 L159.434494,-6.56800327 Z M-104.14679,39.2105719 C-104.623621,39.489231 -105.236066,39.3285811 -105.514725,38.8517504 C-105.793384,38.3749197 -105.632735,37.7624741 -105.155904,37.483815 L-91.3791667,29.4327128 C-85.2534315,25.8549744 -77.6909247,25.7945921 -71.5023086,29.2784604 L-3.29189769,68.39271 C0.138155002,70.3586941 2.25355219,74.0109646 2.25355219,77.9662955 L2.25355219,105.552287 C2.25355219,106.104572 1.80583694,106.552287 1.25355219,106.552287 C0.701267443,106.552287 0.253552193,106.104572 0.253552193,105.552287 L0.253552193,77.9662955 C0.253552193,74.7276017 -1.47838857,71.7373755 -4.2866221,70.127796 L-72.490313,31.0173635 C-78.0530033,27.8858913 -84.858126,27.9402264 -90.3702769,31.1596005 L-104.14679,39.2105719 Z M88.0107049,98.850701 C88.5020334,99.1029208 88.6958692,99.7056857 88.4436494,100.197014 C88.1914296,100.688343 87.5886647,100.882178 87.0973363,100.629959 L74.6609356,94.2443949 C67.5899632,90.1514823 67.4800439,79.9781808 74.5278356,75.697737 L104.724489,60.3509941 C105.216837,60.1007699 105.81881,60.2970498 106.069035,60.7893975 C106.319259,61.2817453 106.122979,61.8837188 105.630631,62.133943 L75.5003099,77.4437406 C69.8166477,80.898407 69.9061415,89.1812776 75.6185821,92.4892969 L88.0107049,98.850701 Z M285.660953,8.08071105 L243.784168,-16.0930412 L213.396254,2.00905133 C212.921776,2.29169802 212.308006,2.13618808 212.025359,1.66171017 C211.742712,1.18723225 211.898222,0.573461487 212.3727,0.290814796 L243.264437,-18.1114056 C243.575544,-18.2967321 243.962534,-18.2993872 244.276155,-18.118347 L286.660835,6.34859181 C287.139146,6.62470145 287.303063,7.23628064 287.026953,7.71459216 C286.750844,8.19290368 286.139265,8.35682069 285.660953,8.08071105 Z M163.583237,16.4410612 C164.135522,16.4410612 164.583237,16.8887765 164.583237,17.4410612 C164.583237,17.993346 164.135522,18.4410612 163.583237,18.4410612 L136.765728,18.4410612 C132.766577,18.4410612 129.176877,15.207723 129.176877,11.3378122 L129.176877,11.1779102 C129.176877,7.25630818 132.830093,3.64697143 136.765728,3.64697143 L186.047329,3.64697143 C186.599614,3.64697143 187.047329,4.09468668 187.047329,4.64697143 C187.047329,5.19925618 186.599614,5.64697143 186.047329,5.64697143 L136.765728,5.64697143 C133.929289,5.64697143 131.176877,8.36632369 131.176877,11.1779102 L131.176877,11.3378122 C131.176877,14.0538222 133.827225,16.4410612 136.765728,16.4410612 L163.583237,16.4410612 Z M265.152152,271.642354 C265.635625,271.909322 265.811137,272.517675 265.544169,273.001149 C265.277201,273.484622 264.668848,273.660134 264.185375,273.393166 L239.075802,259.527965 C234.18193,256.826153 231.149091,251.669745 231.163512,246.077322 L231.221275,224.351836 C231.222744,223.799553 231.671648,223.35303 232.223931,223.354498 C232.776213,223.355967 233.222737,223.804871 233.221268,224.357153 L233.163505,246.082559 C233.150967,250.944983 235.787858,255.428204 240.042507,257.777113 L265.152152,271.642354 Z M243.496328,218.912238 C243.496328,218.359954 243.944043,217.912238 244.496328,217.912238 C245.048613,217.912238 245.496328,218.359954 245.496328,218.912238 L245.496328,242.666361 C245.496328,245.37847 247.00126,247.865183 249.402015,249.12045 L278.610919,264.407471 C279.100239,264.663565 279.289305,265.267843 279.033211,265.757163 C278.777116,266.246483 278.172838,266.43555 277.683518,266.179455 L248.474966,250.892618 C245.414605,249.292468 243.496328,246.122753 243.496328,242.666361 L243.496328,218.912238 Z M40.6256952,185.107426 C41.1045872,185.382528 41.2697921,185.99376 40.9946906,186.472652 C40.7195891,186.951545 40.1083566,187.116749 39.6294645,186.841648 C23.8861136,177.797816 23.771412,155.114189 39.4224713,145.913348 C39.8985798,145.633457 40.5114387,145.792522 40.7913302,146.26863 C41.0712216,146.744739 40.9121564,147.357598 40.436048,147.637489 C26.107922,156.060613 26.2129338,176.827957 40.6256952,185.107426 Z M61.1761259,186.90931 C61.652039,187.189534 61.8106767,187.802503 61.5304532,188.278416 C61.2502297,188.75433 60.63726,188.912967 60.1613469,188.632744 C53.6466491,184.796809 49.5771245,178.413199 48.6858644,171.192434 C48.6182093,170.644308 49.0077072,170.14512 49.5558324,170.077465 C50.1039576,170.009809 50.6031462,170.399307 50.6708013,170.947433 C51.4870942,177.560832 55.2055689,183.393772 61.1761259,186.90931 Z M51.388677,128.457681 C51.8607152,128.170979 52.4757962,128.321223 52.7624989,128.793261 C53.0492016,129.265299 52.8989576,129.88038 52.4269194,130.167083 L17.7810542,151.209833 C3.45422418,159.574346 3.4588136,180.288303 17.7918794,188.645868 L18.1865943,188.877052 C18.663155,189.156172 18.8232119,189.768773 18.5440913,190.245334 C18.2649707,190.721895 17.6523699,190.881951 17.1758092,190.602831 L16.7827684,190.372625 C1.12832978,181.244574 1.12331689,158.619299 16.7577384,149.491543 L51.388677,128.457681 Z M-39.2607031,133.071489 L-25.677468,140.339589 L9.70556674,120.731395 C10.1886345,120.463694 10.7972531,120.638283 11.0649544,121.121351 C11.3326557,121.604419 11.1580668,122.213037 10.674999,122.480738 L-25.1843694,142.352902 C-25.4813348,142.517471 -25.8415153,142.520122 -26.1408715,142.359943 L-40.204275,134.834915 C-40.6912317,134.574355 -40.8747623,133.968372 -40.6142021,133.481416 C-40.353642,132.994459 -39.7476598,132.810928 -39.2607031,133.071489 Z M234.727277,151.376103 C234.764005,154.471473 236.801416,156.580944 239.805382,156.580944 L264.701303,156.580944 C265.253588,156.580944 265.701303,157.028659 265.701303,157.580944 C265.701303,158.133228 265.253588,158.580944 264.701303,158.580944 L239.805382,158.580944 C235.737876,158.580944 232.854745,155.648454 232.730922,151.565604 C232.72988,151.531245 232.729033,151.496804 232.728383,151.462282 C232.727844,151.433651 232.72744,151.404965 232.727171,151.376224 C232.726905,151.347809 232.726772,151.319342 232.726772,151.290821 C232.726772,151.255932 232.728142,151.221956 232.730809,151.188893 C232.83007,149.958401 234.726772,149.992377 234.726772,151.290821 L234.726772,151.462282 C234.726772,152.760236 232.831503,152.794677 232.730922,151.565604 C232.728181,151.532103 232.726772,151.497662 232.726772,151.462282 C232.726772,151.433555 232.726905,151.404869 232.727171,151.376224 C232.727435,151.347715 232.727831,151.319247 232.728357,151.290821 C232.728987,151.256785 232.729805,151.222809 232.730809,151.188893 C232.853979,147.028267 235.783491,143.786854 239.805382,143.786854 L277.027961,143.786854 C279.969748,143.786854 282.413695,141.887238 282.802459,139.217672 C283.288902,135.876504 280.726571,132.992764 277.361062,132.992764 L229.89515,132.992764 C229.342865,132.992764 228.89515,132.545049 228.89515,131.992764 C228.89515,131.440479 229.342865,130.992764 229.89515,130.992764 L277.361062,130.992764 C281.933386,130.992764 285.445538,134.945466 284.781589,139.505852 C284.24286,143.205192 280.921429,145.786854 277.027961,145.786854 L239.805382,145.786854 C236.889011,145.786854 234.764792,148.178623 234.727277,151.376103 C234.726941,151.404765 234.726772,151.433492 234.726772,151.462282 L232.726772,151.462282 L232.726772,151.290821 L234.726772,151.290821 C234.726772,151.319331 234.726941,151.347758 234.727277,151.376103 Z M-28.4200653,303.742052 L-21.180582,300.236381 L-27.8260483,296.174779 C-28.2972876,295.886765 -28.4458211,295.271269 -28.1578073,294.80003 C-27.8697934,294.32879 -27.2542971,294.180257 -26.7830579,294.468271 L-18.5749131,299.484956 C-17.8998885,299.897521 -17.9485479,300.893444 -18.6605759,301.238238 L-27.5484005,305.542108 C-28.0454721,305.782811 -28.6435571,305.574984 -28.8842607,305.077912 C-29.1249643,304.580841 -28.917137,303.982756 -28.4200653,303.742052 Z M-41.9198705,27.5784806 C-42.4046344,27.3138631 -42.5830983,26.7063695 -42.3184808,26.2216056 C-42.0538633,25.7368417 -41.4463697,25.5583778 -40.9616058,25.8229953 L-30.9454742,31.2904892 C-30.4607103,31.5551067 -30.2822464,32.1626003 -30.5468639,32.6473642 C-30.8114814,33.1321281 -31.418975,33.310592 -31.9037389,33.0459745 L-41.9198705,27.5784806 Z M177.202416,118.360905 L177.252704,121.306891 L179.728797,122.81444 C184.089614,125.473604 184.015829,131.833952 179.593054,134.388218 C177.568155,135.558572 175.079795,135.592159 173.026424,134.476645 L163.980713,129.571698 C163.49521,129.308439 163.315046,128.701447 163.578305,128.215944 C163.841564,127.730441 164.448556,127.550277 164.934059,127.813536 L173.980461,132.718859 C175.422437,133.502226 177.170049,133.478637 178.592531,132.65647 C181.700558,130.861504 181.75242,126.390927 178.688133,124.522368 L175.742212,122.728768 C175.449341,122.550456 175.268248,122.234526 175.262396,121.891693 L175.20271,118.395232 C175.140715,114.80385 171.259749,112.589328 168.140566,114.365234 L164.95204,116.180025 C164.285392,116.559457 163.457386,116.078 163.457386,115.310936 L163.457386,112.045466 C163.457386,108.40517 159.519494,106.130142 156.36993,107.950675 L153.420158,109.653728 C153.107801,109.834068 152.722534,109.832229 152.411913,109.648915 L149.689528,108.042298 C146.503352,106.162899 142.492541,108.508209 142.565659,112.209126 L142.625348,115.291575 C142.640288,116.063143 141.812693,116.56014 141.138635,116.184393 L132.272934,111.242294 C130.82357,110.432223 129.052046,110.445794 127.542564,111.318077 C124.394283,113.137197 124.392581,117.684103 127.539074,119.506289 L130.450337,121.190076 C130.759365,121.368809 130.949675,121.698727 130.949675,122.055719 L130.949675,125.363572 C130.949675,128.973398 134.830502,131.251976 137.97996,129.491921 L140.972092,127.819693 C141.454194,127.550258 142.063436,127.722659 142.332872,128.204761 C142.602307,128.686864 142.429906,129.296106 141.947803,129.565541 L138.95565,131.237782 C134.47273,133.743033 128.949675,130.500241 128.949675,125.363572 L128.949675,122.63256 L126.537267,121.237294 C122.05937,118.644072 122.061792,112.175077 126.611423,109.545833 C128.661573,108.361687 131.183786,108.342365 133.247716,109.495927 L140.592022,113.589939 L140.566042,112.248239 C140.462014,106.982814 146.170708,103.644673 150.705833,106.319764 L152.925685,107.629811 L155.369491,106.218878 C159.852465,103.627598 165.457386,106.865714 165.457386,112.045466 L165.457386,113.591143 L167.151136,112.627123 C171.590742,110.099435 177.114211,113.251186 177.202416,118.360905 Z M80.3748956,118.972412 L91.0061932,112.920279 L90.9052152,110.171803 C90.6998335,104.547407 96.6815203,100.830433 101.626604,103.511005 L104.976719,105.325133 L114.072491,110.56337 C114.551084,110.838991 114.715626,111.450402 114.440005,111.928995 C114.164384,112.407589 113.552973,112.57213 113.074379,112.296509 L104.001565,107.071095 L100.673949,105.269541 C97.0901846,103.326897 92.754968,106.020767 92.9038749,110.098596 L93.027103,113.452686 C93.040783,113.825036 92.8463132,114.174113 92.5225047,114.358449 L79.858895,121.567527 C79.1898526,121.948396 78.3594106,121.462116 78.3641868,120.692274 L78.3853674,117.278341 C78.4112643,113.184306 73.9674561,110.624791 70.4431645,112.703651 C68.9111194,113.606889 67.9380068,115.222729 67.8554522,116.999469 L67.5262008,124.12381 C67.4387802,126.014137 68.3677521,127.803422 69.9635629,128.818778 L79.2769094,134.740933 C79.5655246,134.924458 79.7403254,135.242757 79.7403254,135.58478 L79.7403254,139.247115 C79.7403254,143.305109 84.1304846,145.840886 87.6418345,143.812215 L91.0017249,141.870272 C91.6683914,141.484953 92.5021325,141.966052 92.5021325,142.736062 L92.5021325,145.140372 C92.5021325,149.502156 100.477758,152.13845 104.850698,149.405384 C105.164366,149.209343 105.56063,149.20246 105.880917,149.387488 L117.552926,156.130345 C118.031148,156.406611 118.194865,157.018244 117.918599,157.496465 C117.642333,157.974687 117.0307,158.138404 116.552479,157.862138 L105.378387,151.406925 C99.751059,154.366343 90.5021325,151.122417 90.5021325,145.140372 L90.5021325,144.469055 L88.6424996,145.543882 C83.7973395,148.343158 77.7403254,144.844596 77.7403254,139.247115 L77.7403254,136.133951 L68.8901637,130.506325 C66.6893156,129.106006 65.4078052,126.6377 65.5283346,124.031447 L65.8575961,116.906889 C65.9714842,114.455788 67.3137925,112.226903 69.4272315,110.980897 C74.289891,108.11258 80.4210478,111.643962 80.3853281,117.29087 L80.3748956,118.972412 Z M48.9571364,246.35297 C48.9571364,245.800685 49.4048517,245.35297 49.9571364,245.35297 C50.5094212,245.35297 50.9571364,245.800685 50.9571364,246.35297 L50.9571364,307.641688 C50.9571364,308.193973 50.5094212,308.641688 49.9571364,308.641688 C49.4048517,308.641688 48.9571364,308.193973 48.9571364,307.641688 L48.9571364,246.35297 Z M48.9571364,219.381541 C48.9571364,218.829256 49.4048517,218.381541 49.9571364,218.381541 C50.5094212,218.381541 50.9571364,218.829256 50.9571364,219.381541 L50.9571364,237.198096 C50.9571364,237.750381 50.5094212,238.198096 49.9571364,238.198096 C49.4048517,238.198096 48.9571364,237.750381 48.9571364,237.198096 L48.9571364,219.381541 Z M79.1354982,206.23952 C79.1354982,205.687235 79.5832135,205.23952 80.1354982,205.23952 C80.687783,205.23952 81.1354982,205.687235 81.1354982,206.23952 L81.1354982,304.627438 C81.1354982,305.179723 80.687783,305.627438 80.1354982,305.627438 C79.5832135,305.627438 79.1354982,305.179723 79.1354982,304.627438 L79.1354982,206.23952 Z M97.1647276,293.437378 C97.1647276,292.885093 97.6124429,292.437378 98.1647276,292.437378 C98.7170124,292.437378 99.1647276,292.885093 99.1647276,293.437378 L99.1647276,308.824578 C99.1647276,309.376863 98.7170124,309.824578 98.1647276,309.824578 C97.6124429,309.824578 97.1647276,309.376863 97.1647276,308.824578 L97.1647276,293.437378 Z M97.1647276,205.958054 C97.1647276,205.405769 97.6124429,204.958054 98.1647276,204.958054 C98.7170124,204.958054 99.1647276,205.405769 99.1647276,205.958054 L99.1647276,281.715017 C99.1647276,282.267302 98.7170124,282.715017 98.1647276,282.715017 C97.6124429,282.715017 97.1647276,282.267302 97.1647276,281.715017 L97.1647276,205.958054 Z M33.6822469,201.55728 C33.6822469,201.004995 34.1299622,200.55728 34.6822469,200.55728 C35.2345317,200.55728 35.6822469,201.004995 35.6822469,201.55728 L35.6822469,293.389215 C35.6822469,293.941499 35.2345317,294.389215 34.6822469,294.389215 C34.1299622,294.389215 33.6822469,293.941499 33.6822469,293.389215 L33.6822469,201.55728 Z M105.761733,325.770045 L97.7019029,321.545662 L90.1816302,325.48484 C87.9692326,326.6449 85.2557297,326.6449 83.0435379,325.484948 L75.058744,321.300523 C74.5695609,321.044167 74.3808173,320.439788 74.6371733,319.950605 C74.8935292,319.461422 75.497908,319.272679 75.9870911,319.529034 L83.9720907,323.713567 C85.6028686,324.568658 87.6220937,324.568658 89.253245,323.713371 L97.2380389,319.530873 C97.5287276,319.378608 97.8756227,319.378652 98.1662732,319.53099 L106.690019,323.998525 C108.422373,324.906074 110.582812,324.845033 112.247025,323.842674 L119.363446,319.55807 C119.836593,319.273201 120.451086,319.425831 120.735955,319.898978 C121.020824,320.372125 120.868194,320.986618 120.395047,321.271487 L113.278771,325.556005 C111.015389,326.919244 108.111943,327.001278 105.761733,325.770045 Z M40.280292,325.485035 L32.7596458,321.545662 L24.6996446,325.770135 C22.3496059,327.001278 19.4461597,326.919244 17.1829223,325.556091 L10.0665013,321.271487 C9.59335424,320.986618 9.44072474,320.372125 9.72559372,319.898978 C10.0104627,319.425831 10.6249561,319.273201 11.0981031,319.55807 L18.2146683,323.842761 C19.8787362,324.845033 22.0391758,324.906074 23.7713589,323.998614 L32.2952755,319.53099 C32.585926,319.378652 32.9328211,319.378608 33.2235098,319.530873 L41.2086771,323.713567 C42.839455,324.568658 44.8586801,324.568658 46.4896637,323.713459 L54.4744576,319.529034 C54.9636407,319.272679 55.5680194,319.461422 55.8243754,319.950605 C56.0807314,320.439788 55.8919877,321.044167 55.4028047,321.300523 L47.4182166,325.48484 C45.205819,326.6449 42.4923161,326.6449 40.280292,325.485035 Z M20.125582,308.071231 L12.5141545,304.139001 L5.16573043,308.048181 C2.94827936,309.228534 0.213004261,309.237082 -2.01256736,308.070434 L-10.1359928,303.812802 C-10.625162,303.556419 -10.8138731,302.95203 -10.5574907,302.462861 C-10.3011084,301.973692 -9.69671942,301.784981 -9.20755018,302.041363 L-1.08406665,306.299026 C0.556109933,307.158809 2.59207333,307.152446 4.22619685,306.282599 L12.0377012,302.127073 C12.3275614,301.972875 12.6746482,301.970785 12.9663443,302.121481 L21.0437374,306.294438 C22.6689624,307.134478 24.675313,307.128584 26.2952387,306.279726 L34.3012124,302.083743 C34.7903839,301.827365 35.3947712,302.016081 35.6511492,302.505253 C35.9075272,302.994424 35.7188108,303.598811 35.2296393,303.855189 L27.2235988,308.051208 C25.0258366,309.202859 22.3302624,309.210777 20.125582,308.071231 Z M53.4718636,342.182199 C52.9936339,341.905947 52.8298982,341.29432 53.1061496,340.81609 C53.3824009,340.33786 53.9940287,340.174125 54.4722584,340.450376 L62.7262553,345.218332 C64.4213875,346.196597 66.5095738,346.189853 68.1959755,345.200544 L76.2943703,340.453572 C76.7708345,340.174287 77.3834906,340.334132 77.6627758,340.810597 C77.9420611,341.287061 77.7822159,341.899717 77.3057517,342.179002 L69.2076632,346.925794 C66.9008765,348.279045 64.0445391,348.288271 61.7262188,346.950362 L53.4718636,342.182199 Z M16.2499035,207.015719 C16.2499035,206.463434 16.6976188,206.015719 17.2499035,206.015719 C17.8021883,206.015719 18.2499035,206.463434 18.2499035,207.015719 L18.2499035,260.958576 C18.2499035,261.510861 17.8021883,261.958576 17.2499035,261.958576 C16.6976188,261.958576 16.2499035,261.510861 16.2499035,260.958576 L16.2499035,207.015719 Z M50.5099937,74.0724901 C50.8715908,73.6550384 51.5031347,73.6097592 51.9205865,73.9713563 C52.3380382,74.3329534 52.3833174,74.9644973 52.0217203,75.381949 C48.0570232,79.9590597 49.1457299,87.0032808 54.3070101,90.1692862 L63.341168,95.7080617 C63.812007,95.9967296 63.9596858,96.6124315 63.6710179,97.0832704 C63.38235,97.5541094 62.7666481,97.7017882 62.2958092,97.4131203 L53.2614517,91.8742224 C47.0475422,88.0625188 45.7369723,79.5827841 50.5099937,74.0724901 Z M150.505491,309.148529 L209.548181,273.978935 L218.688291,268.740668 C223.103305,266.210748 228.528791,266.22561 232.928847,268.780126 L250.646733,279.067799 C251.124344,279.345118 251.286713,279.95711 251.009394,280.434722 C250.732075,280.912333 250.120083,281.074702 249.642471,280.797383 L231.924633,270.509737 C228.142103,268.313735 223.478293,268.30096 219.682712,270.475928 L210.557174,275.705681 L151.52664,310.868194 L143.58228,315.570856 C143.272247,315.75438 142.887461,315.756944 142.57501,315.577569 L132.329495,309.695724 C129.054369,307.814225 128.953317,303.126681 132.144869,301.107668 C133.720138,300.111437 135.716598,300.070629 137.330828,301.002166 L142.719085,304.11484 L148.005232,300.925176 C149.568346,299.981963 151.518987,299.962646 153.102423,300.875204 C155.061359,302.007827 155.919658,304.10181 155.667503,306.073706 C155.476604,307.566569 154.649244,308.989457 153.181163,309.872242 C153.181163,309.872242 151.531911,310.865052 151.525567,310.86883 C151.053415,311.147638 150.443851,310.994098 150.160502,310.523401 C149.875666,310.050234 150.028339,309.435751 150.501506,309.150916 L152.150096,308.158503 C154.25204,306.894564 154.224887,303.834427 152.102556,302.607331 C151.150813,302.058828 149.978394,302.070439 149.038514,302.63758 L143.246794,306.132307 C142.934909,306.320498 142.545364,306.324213 142.229947,306.142004 L136.330792,302.734196 C135.360837,302.174456 134.161065,302.19898 133.213987,302.797931 C131.295275,304.01173 131.356028,306.829948 133.325506,307.961376 L143.065173,313.552819 L150.505491,309.148529 Z M-32.3392531,278.205543 C-32.8205454,277.934663 -32.9911179,277.324906 -32.7202374,276.843614 C-32.449357,276.362322 -31.8396005,276.191749 -31.3583083,276.46263 L-23.6565539,280.797324 C-23.1752616,281.068204 -23.0046892,281.677961 -23.2755696,282.159253 C-23.54645,282.640545 -24.1562065,282.811118 -24.6374987,282.540237 L-32.3392531,278.205543 Z M-136.59841,117.504806 L-107.951253,102.868486 L-114.234309,98.676882 C-114.69374,98.3703828 -114.817716,97.7494738 -114.511216,97.290043 C-114.204717,96.8306122 -113.583808,96.7066367 -113.124377,97.0131359 L-105.422623,102.151193 C-104.787216,102.575091 -104.842424,103.52605 -105.522615,103.873571 L-135.688461,119.285816 C-136.180274,119.537091 -136.782665,119.342097 -137.03394,118.850285 C-137.285215,118.358473 -137.090222,117.756082 -136.59841,117.504806 Z M49.0508056,161.952978 C49.1117912,162.501886 48.7162525,162.996301 48.1673453,163.057287 C47.618438,163.118273 47.1240221,162.722734 47.0630365,162.173827 C47.0580621,162.129054 47.0519876,162.057692 47.0463732,161.960887 C46.9610674,160.490018 47.1868852,158.490954 47.9762917,156.152738 C49.17499,152.602203 51.4370342,149.100336 55.0004067,145.847507 C57.0459357,143.980244 59.4804754,142.237587 62.3304477,140.640711 C62.8122552,140.370748 63.4216855,140.542482 63.6916484,141.024289 C63.9616113,141.506097 63.7898774,142.115527 63.3080699,142.38549 C60.5892312,143.90889 58.2793005,145.562352 56.3487904,147.32462 C53.0380106,150.346869 50.9625958,153.559815 49.8712128,156.792483 C49.4717264,157.975759 49.2281744,159.097554 49.1109173,160.135579 C49.03109,160.842254 49.0183542,161.419827 49.043018,161.845088 C49.0465727,161.906378 49.0496673,161.942733 49.0508056,161.952978 Z M268.504429,106.674553 C269.056714,106.674553 269.504429,107.122269 269.504429,107.674553 C269.504429,108.226838 269.056714,108.674553 268.504429,108.674553 L232.383201,108.674553 C229.419762,108.674553 226.990745,111.104948 226.990745,114.070635 L226.990745,114.261362 C226.990745,117.227049 229.419762,119.657443 232.383201,119.657443 L254.450653,119.657443 C255.002938,119.657443 255.450653,120.105159 255.450653,120.657443 C255.450653,121.209728 255.002938,121.657443 254.450653,121.657443 L232.383201,121.657443 C228.314939,121.657443 224.990745,118.331364 224.990745,114.261362 L224.990745,114.070635 C224.990745,110.000632 228.314939,106.674553 232.383201,106.674553 L268.504429,106.674553 Z M-138.608742,29.9745401 C-139.073627,29.6763794 -139.208785,29.0578081 -138.910624,28.5929225 C-138.612463,28.1280369 -137.993892,27.9928796 -137.529006,28.2910403 L-112.498305,44.3448199 C-112.033419,44.6429806 -111.898262,45.2615519 -112.196422,45.7264375 C-112.494583,46.1913231 -113.113154,46.3264804 -113.57804,46.0283197 L-138.608742,29.9745401 Z M17.4660235,101.894266 C17.4620975,101.122106 18.2975965,100.637031 18.9662214,101.023278 L30.3051293,107.573483 C30.9482221,107.944981 30.9762619,108.863101 30.3570379,109.273151 L19.0893712,116.734604 C18.4265334,117.173536 17.5413067,116.700907 17.5372647,115.905924 L17.4660235,101.894266 Z M19.5278313,114.045498 L27.9061456,108.497375 L19.4748584,103.626831 L19.5278313,114.045498 Z M109.105369,86.9977956 C109.109295,87.7699558 108.273796,88.2550315 107.605171,87.8687836 L96.2662632,81.3185795 C95.6231704,80.9470809 95.5951307,80.0289613 96.2143546,79.6189109 L107.482021,72.1574579 C108.144859,71.7185264 109.030086,72.1911552 109.034128,72.9861385 L109.105369,86.9977956 Z M107.043561,74.8465638 L98.6652469,80.3946866 L107.096534,85.2652308 L107.043561,74.8465638 Z M146.599513,205.318529 L136.217548,211.861027 C135.896208,212.063529 135.487885,212.066502 135.163631,211.868701 L123.857455,204.971721 C123.222815,204.584578 123.217484,203.664897 123.847593,203.270423 L135.076751,196.240513 C135.39305,196.042497 135.79329,196.03707 136.114842,196.226438 L158.255621,209.265557 L158.255621,199.122394 L154.455876,201.310697 C153.977285,201.586321 153.365872,201.421784 153.090248,200.943193 C152.814623,200.464602 152.979161,199.853189 153.457752,199.577564 L158.756559,196.52594 C159.423225,196.142002 160.255621,196.623187 160.255621,197.392506 L160.255621,211.015004 C160.255621,211.788646 159.414793,212.269271 158.748163,211.876681 L146.955002,204.931467 C146.875944,205.084892 146.756101,205.219851 146.599513,205.318529 Z M245.432338,188.610992 L245.62909,175.21713 L233.969465,168.487425 L222.653582,175.253515 L222.523969,189.057089 L233.984173,195.207858 L245.432338,188.610992 Z M207.921778,159.926467 L216.721279,165.722141 L216.882219,154.831497 L207.921778,159.926467 Z M180.387961,186.051433 L171.58846,180.25576 L171.42752,191.146403 L180.387961,186.051433 Z M-12.256168,237.326018 C-12.256168,240.020064 -10.0736071,242.203863 -7.38165482,242.203863 C-4.69017124,242.203863 -2.50906711,240.020533 -2.50906711,237.326018 C-2.50906711,234.631503 -4.69017124,232.448173 -7.38165482,232.448173 C-10.0736071,232.448173 -12.256168,234.631972 -12.256168,237.326018 Z M-90.6558386,193.701273 C-90.6558386,192.931396 -89.8223549,192.45028 -89.1556882,192.835335 L-79.0991224,198.643825 C-78.4510556,199.018136 -78.428727,199.945564 -79.0580297,200.350629 L-89.1145955,206.823772 C-89.7800788,207.252126 -90.6558386,206.774332 -90.6558386,205.982906 L-90.6558386,193.701273 Z M-130.448108,51.7803135 C-130.448108,51.0104359 -129.614624,50.5293204 -128.947958,50.9143749 L-118.891392,56.7228647 C-118.243325,57.0971763 -118.220996,58.0246041 -118.850299,58.4296694 L-128.906865,64.9028123 C-129.572348,65.3311661 -130.448108,64.8533721 -130.448108,64.0619461 L-130.448108,51.7803135 Z M135.623246,198.257984 L126.280381,204.106998 L135.675835,209.838402 L145.149601,203.868232 L135.623246,198.257984 Z M268.667365,179.536675 L259.205019,185.156982 L268.540377,190.677906 L278.114399,185.146942 L268.667365,179.536675 Z M193.768218,153.546479 L181.785162,146.854055 L170.194543,153.537303 L170.194543,166.989209 L181.98138,173.570566 L193.768218,166.989209 L193.768218,153.546479 Z M216.712881,138.184631 L216.909633,124.790769 L205.250008,118.061064 L193.934125,124.827154 L193.804512,138.630728 L205.264716,144.781498 L216.712881,138.184631 Z"/>
  </g>
</svg>
